<svg width="182" height="153" viewBox="0 0 182 153" fill="none" xmlns="http://www.w3.org/2000/svg">
<path d="M98.5424 88.5392C91.002 89.1722 85.9057 83.7685 85.1689 76.8352C84.8895 74.2169 83.924 72.3734 81.6071 71.1731C80.9364 70.8237 80.3114 70.3628 79.7372 69.8715C76.5005 67.0962 73.3706 65.4756 68.762 67.6027C65.1545 69.2689 61.054 68.3725 57.6751 65.9314C55.9831 64.7108 54.4486 64.8223 52.7312 65.7794C44.6878 70.2716 36.6393 74.7537 28.5604 79.18C26.8074 80.1423 26.5482 81.6414 26.3501 83.3988C25.6591 89.5014 22.8492 93.9987 16.6655 96.0194C9.3538 98.4098 0.909013 92.6617 0.0909556 85.0548C-1.09294 74.0902 9.76029 67.162 19.1807 71.8163C20.7914 72.6114 22.1633 72.4949 23.713 71.6289C32.046 66.9595 40.4044 62.3457 48.7781 57.7523C51.0036 56.5317 52.3247 54.9516 52.6397 52.2674C53.2952 46.7573 58.9301 42.2752 64.9309 42.1486C71.2315 42.0119 77.532 46.1597 77.659 51.8116C77.8267 59.383 83.8275 61.1758 88.3852 64.5336C89.3761 65.2629 90.6616 64.8425 91.7947 64.3462C94.8586 62.9991 97.958 62.0267 101.367 63.1155C102.948 63.622 104.121 62.7965 105.082 61.5658C109.243 56.243 113.405 50.9254 117.602 45.633C118.923 43.9718 119.187 42.2854 118.592 40.2089C117.022 34.7444 117.901 29.685 122.444 25.9676C126.676 22.5086 131.564 21.678 136.676 24.1546C138.155 24.8686 139.364 24.742 140.695 23.8456C144.272 21.44 147.819 18.9736 151.533 16.7959C154.216 15.2208 155.74 13.1241 156.386 10.1209C157.163 6.52512 159.383 3.82576 162.717 2.34187C171.705 -1.65907 181.583 3.63331 181.857 13.3925C182.005 18.7254 179.789 22.615 175.43 25.1573C170.928 27.7807 166.085 27.5579 161.711 24.7471C159.389 23.2531 157.62 23.3341 155.512 24.8636C152.57 26.9907 149.536 29.0063 146.493 30.9865C144.913 32.0146 144.308 33.3618 144.232 35.2103C143.866 44.3365 138.261 49.3807 129.059 48.8439C127.256 48.7375 126.011 49.2743 124.908 50.6671C120.823 55.8328 116.707 60.9783 112.531 66.0732C110.986 67.9572 110.376 69.8462 110.874 72.3582C111.88 77.4328 110.955 82.0364 106.804 85.698C104.284 87.9264 101.474 88.8734 98.5424 88.5392ZM168.672 8.21665C165.471 8.25211 163.199 10.6121 163.189 13.9193C163.179 17.3124 165.588 19.713 168.916 19.6269C172.056 19.5459 174.789 16.806 174.723 13.7977C174.662 10.8046 171.817 8.1812 168.672 8.21665ZM13.1189 89.0102C16.386 88.9545 18.7945 86.5792 18.7691 83.4443C18.7437 80.3499 15.9999 77.5341 13.0071 77.5341C9.87208 77.5341 7.21974 80.2081 7.23498 83.3532C7.25531 86.564 9.86191 89.0659 13.1189 89.0102ZM98.1156 81.5097C101.317 81.53 103.979 79.0079 104.066 75.8729C104.147 72.8646 101.347 70.0437 98.2883 70.0539C94.9246 70.0691 92.6076 72.419 92.6076 75.8274C92.6076 79.0382 94.9907 81.4945 98.1156 81.5097ZM130.762 41.5358C134.014 41.5814 136.976 38.8415 136.925 35.8231C136.879 33.0224 134.075 30.4396 131.026 30.399C127.738 30.3535 125.117 32.8148 125.117 35.9446C125.122 38.9833 127.652 41.4902 130.762 41.5358ZM65.3171 49.6643C61.9788 49.6288 59.5906 52.0041 59.5957 55.3517C59.6008 58.4765 62.0143 60.7757 65.2967 60.7909C68.5842 60.8061 70.9926 58.5221 71.013 55.372C71.0282 51.999 68.7366 49.6997 65.3171 49.6643Z" fill="#686868" fill-opacity="0.2"/>
<path d="M116.453 132.605C116.977 140.962 111.672 147.181 103.994 147.621C97.1654 148.016 90.6819 142.071 90.1992 134.788C90.0671 132.782 89.2947 131.532 87.5773 130.564C79.915 126.259 72.2781 121.919 64.6717 117.518C62.7917 116.429 61.1505 116.272 59.2654 117.533C55.7595 119.888 51.8775 119.762 48.026 118.663C46.2426 118.151 44.9875 118.511 43.6664 119.706C38.7225 124.183 33.7329 128.609 28.7026 132.995C26.9598 134.514 26.3805 136.338 26.3348 138.586C26.1773 146.259 22.7374 150.594 15.3596 152.666C9.0743 154.428 0.853078 148.837 0.223021 142.268C-0.10217 138.895 -0.0767641 135.558 2.03189 132.549C5.63948 127.409 11.1728 125.409 17.4226 127.47C19.5871 128.184 21.0454 127.809 22.6612 126.315C27.6152 121.727 32.6709 117.25 37.7216 112.763C39.317 111.35 39.8912 109.769 39.5711 107.602C38.8242 102.603 40.9176 98.6276 44.8859 95.7865C48.8492 92.9504 53.2189 92.4034 57.8376 94.4748C62.431 96.536 64.9664 100.01 65.4898 104.938C65.7032 106.918 66.7601 108.184 68.3809 109.111C76.3633 113.7 84.3661 118.263 92.3332 122.876C93.9439 123.808 95.3768 124.021 97.0383 122.942C100.189 120.896 103.735 121.347 107.14 121.924C108.943 122.228 110.198 121.924 111.484 120.719C124.446 108.605 136.737 95.8118 149.501 83.495C151.264 81.7933 152.956 80.0208 154.785 78.39C156.284 77.053 156.696 75.5894 156.228 73.6446C154.597 66.8481 158.108 59.849 164.404 58.2942C171.705 56.4963 178.554 58.3803 181.197 66.134C184.286 75.2045 178.011 83.8343 169.927 83.181C163.875 82.6898 160.298 85.4195 156.645 89.1115C153.733 92.054 150.796 94.9711 147.844 97.873C138.261 107.278 128.694 116.703 119.045 126.037C116.997 128.022 115.772 130.098 116.453 132.605ZM174.723 70.5299C174.667 67.238 172.03 64.7868 168.616 64.8679C165.41 64.9438 163.138 67.4609 163.204 70.8743C163.26 74.0498 165.725 76.3744 168.936 76.2781C172.198 76.1819 174.774 73.6243 174.723 70.5299ZM103.547 140.121C106.677 140.07 109.263 137.533 109.253 134.525C109.243 131.41 106.535 128.645 103.486 128.64C100.295 128.635 97.6786 131.243 97.6786 134.433C97.6735 137.649 100.28 140.172 103.547 140.121ZM52.533 100.78C49.1744 100.81 46.9031 103.024 46.9184 106.245C46.9387 109.496 49.4894 112.155 52.5635 112.13C55.7239 112.104 58.3813 109.471 58.3712 106.371C58.3661 103.17 55.8357 100.75 52.533 100.78ZM13.1341 144.932C16.3606 144.897 18.2965 142.942 18.2965 139.711C18.2965 136.566 16.198 134.474 13.068 134.504C10.0651 134.535 7.64651 136.834 7.62619 139.675C7.60586 142.709 9.97366 144.968 13.1341 144.932Z" fill="#686868" fill-opacity="0.2"/>
</svg>
