<svg width="52" height="60" viewBox="0 0 52 60" fill="none" xmlns="http://www.w3.org/2000/svg">
<path d="M51.1433 15.4492C51.1125 13.8292 51.0831 12.2989 51.0831 10.8185C51.0831 9.65861 50.1431 8.7183 48.9829 8.7183C40.0013 8.7183 33.1629 6.13707 27.4628 0.594903C26.6474 -0.198115 25.3498 -0.197835 24.5346 0.594903C18.8351 6.13707 11.9978 8.7183 3.01672 8.7183C1.85687 8.7183 0.916564 9.65861 0.916564 10.8185C0.916564 12.2992 0.887442 13.8301 0.85636 15.4503C0.568499 30.5255 0.174231 51.1716 25.3108 59.8845C25.5337 59.9618 25.7661 60.0004 25.9986 60.0004C26.231 60.0004 26.4637 59.9618 26.6863 59.8845C51.8249 51.1714 51.4312 30.5246 51.1433 15.4492ZM25.9988 55.6716C4.4409 47.8402 4.76685 30.6848 5.05611 15.5304C5.07347 14.6208 5.09027 13.7393 5.10203 12.8752C13.5139 12.5201 20.2405 9.97111 25.9988 4.95482C31.7577 9.97111 38.4855 12.5204 46.8979 12.8752C46.9097 13.7391 46.9265 14.62 46.9438 15.529C47.2328 30.6839 47.5585 47.84 25.9988 55.6716Z" fill="white"/>
<path d="M33.2309 22.7048L23.0945 32.8407L18.769 28.5153C17.9488 27.6954 16.619 27.6954 15.7991 28.5153C14.9789 29.3357 14.9789 30.6653 15.7991 31.4854L21.6095 37.2959C22.0195 37.7058 22.5571 37.9108 23.0945 37.9108C23.6318 37.9108 24.1695 37.7058 24.5794 37.2959L36.2006 25.675C37.021 24.8548 37.021 23.525 36.2008 22.7051C35.3809 21.8849 34.0511 21.8847 33.2309 22.7048Z" fill="white"/>
</svg>
