<svg width="60" height="80" viewBox="0 0 60 80" fill="none" xmlns="http://www.w3.org/2000/svg">
<path d="M32.9086 22.9725L32.9124 23.6713C32.9124 26.5759 32.697 29.2239 32.3724 30.9501L32.0881 32.0235C31.9299 32.5921 31.722 33.2394 31.5052 33.5698C30.7115 34.7786 29.1597 35.5265 27.4988 35.5265H27.3543C26.2716 35.4982 23.9971 34.7482 23.9971 34.7221C20.3371 33.5097 13.2761 29.8507 10.015 27.2422L9.06732 26.459C8.81916 26.2468 8.54035 25.9956 8.36726 25.7997C7.78909 25.1954 7.5 24.4475 7.5 23.6996C7.5 22.8648 7.82454 22.0886 8.43817 21.4538L9.41182 20.6243L9.62997 20.4472C12.589 17.9144 20.3153 13.7729 24.3571 12.5054L24.9673 12.3207C25.7016 12.113 26.7304 11.8651 27.3543 11.8423C28.1479 11.8423 28.9061 11.9879 29.6288 12.2749C30.5315 12.6771 31.2515 13.3119 31.6497 14.0598C31.9033 14.5773 32.3015 16.1317 32.3015 16.16C32.6665 17.7273 32.8782 20.2005 32.9086 22.9725ZM52.5 23.6853C52.5 25.3397 50.8173 26.6811 48.7419 26.6811L39.4938 26.0354C37.8656 26.0354 36.5456 24.9832 36.5456 23.6853C36.5456 22.3852 37.8656 21.3351 39.4938 21.3351L48.7419 20.6894C50.8173 20.6894 52.5 22.0308 52.5 23.6853Z" fill="white"/>
<path d="M27.0914 55.3409L27.0876 56.0398C27.0876 58.9443 27.303 61.5923 27.6276 63.3185L27.9119 64.3919C28.0701 64.9605 28.278 65.6078 28.4948 65.9382C29.2885 67.147 30.8403 67.8949 32.5012 67.8949H32.6457C33.7284 67.8666 36.0029 67.1166 36.0029 67.0905C39.6629 65.8781 46.7239 62.2191 49.985 59.6106L50.9327 58.8274C51.1808 58.6152 51.4596 58.364 51.6327 58.1682C52.2109 57.5638 52.5 56.8159 52.5 56.068C52.5 55.2332 52.1755 54.457 51.5618 53.8222L50.5882 52.9927L50.37 52.8156C47.411 50.2828 39.6847 46.1413 35.6429 44.8738L35.0327 44.6892C34.2984 44.4814 33.2696 44.2335 32.6457 44.2107C31.8521 44.2107 31.0939 44.3564 30.3712 44.6433C29.4685 45.0455 28.7485 45.6804 28.3503 46.4282C28.0967 46.9457 27.6985 48.5001 27.6985 48.5284C27.3335 50.0957 27.1218 52.5689 27.0914 55.3409ZM7.5 56.0537C7.5 57.7081 9.1827 59.0495 11.2581 59.0495L20.5062 58.4038C22.1344 58.4038 23.4544 57.3516 23.4544 56.0537C23.4544 54.7536 22.1344 53.7035 20.5062 53.7035L11.2581 53.0578C9.1827 53.0578 7.5 54.3992 7.5 56.0537Z" fill="white"/>
</svg>
