<svg width="104" height="133" viewBox="0 0 104 133" fill="none" xmlns="http://www.w3.org/2000/svg">
<path fill-rule="evenodd" clip-rule="evenodd" d="M37.6006 0.128705C34.7859 1.16575 33.9469 2.19963 28.1505 11.777C24.7122 17.4579 21.844 19.9231 19.3178 19.3688L18.2462 19.1339L19.7388 18.3745C20.9359 17.7654 21.4936 17.129 22.5571 15.1577C23.2864 13.8061 23.8856 12.5609 23.8884 12.3907C23.8916 12.2207 22.6973 12.1579 21.2349 12.252C18.2972 12.4402 17.0632 13.0714 16.1768 14.8383C15.792 15.6057 15.6335 15.7128 15.5407 15.269C15.1141 13.2339 18.2989 10.7652 22.5821 9.81105C25.2429 9.21845 25.4049 9.12612 26.0713 7.82402L26.77 6.45873L24.5414 6.70483C17.1648 7.52 12.9825 10.5686 13.0068 15.1128C13.018 17.2252 14.11 19.341 15.747 20.4233C16.5153 20.9313 18.9459 21.9484 21.1478 22.6835C26.5925 24.501 27.6363 25.0928 30.1692 27.7974L32.3552 30.1317L34.6671 29.3151C35.9386 28.8657 37.0661 28.2759 37.1729 28.0039C37.3451 27.5657 36.8299 24.3918 36.3249 22.7779C35.8476 21.2529 37.3293 23.7307 38.0104 25.5966C38.8096 27.7862 38.9056 27.8329 41.3541 27.2168L42.9589 26.8134L42.7209 24.496C42.4668 22.0186 41.4656 17.3077 40.5929 14.4855C40.2994 13.5365 40.122 12.6978 40.1979 12.6217C40.4537 12.3664 42.7733 16.5388 43.7461 19.004C44.2761 20.3468 44.9646 22.5304 45.2764 23.8564L45.8425 26.2668L47.9597 26.0183C50.9776 25.664 56.9639 25.769 60.0061 26.2296C62.9365 26.6733 63.6081 26.5445 63.6081 25.5384C63.6081 24.3247 64.9752 21.1918 66.2756 19.4263C66.9641 18.4918 67.589 17.7883 67.6642 17.8637C67.7394 17.9389 67.3974 18.998 66.9043 20.2173C66.3719 21.5341 65.9298 23.4671 65.8155 24.9777C65.6289 27.4415 65.649 27.5264 66.4605 27.7009C66.9212 27.8003 67.5524 27.9888 67.8631 28.1204C68.2729 28.2939 68.5484 28.0692 68.8669 27.301C69.5536 25.6444 72.3947 23.2406 75.5233 21.6696C79.1145 19.8659 80.8921 18.2724 82.1366 15.7409C82.9871 14.0108 83.1136 13.341 83.1136 10.5665C83.1136 7.62111 83.0395 7.28268 82.1348 6.09784C81.4861 5.24827 80.2412 4.37377 78.4446 3.50559C75.9029 2.27757 75.524 2.19472 72.3944 2.1884C69.7989 2.18278 68.5214 2.36393 66.6566 3.00216C64.2892 3.81242 59.8096 6.5286 58.5524 7.91635C57.9181 8.61637 57.9247 8.63393 58.912 8.84176C60.8281 9.24548 62.4005 9.67097 67.241 11.0949C74.5024 13.2311 78.6007 13.3498 80.3006 11.473C81.1989 10.4819 81.5792 10.5992 81.1487 11.7349C79.4332 16.2573 72.1171 17.294 63.6098 14.2201C61.9657 13.6261 59.3109 12.7484 57.7097 12.2699L54.7986 11.3993L52.2622 12.6392C48.0511 14.6979 44.7699 14.6863 42.774 12.6055C41.3239 11.0935 41.2062 9.72187 42.3407 7.5544C43.3985 5.53368 43.4091 3.7408 42.372 2.15996C41.3861 0.657055 38.9646 -0.374018 37.6006 0.128705ZM47.3791 33.1157C46.4976 33.2688 46.4245 33.4268 46.2158 35.6279C45.8689 39.2839 44.7225 44.0152 43.408 47.2155C42.1309 50.3252 40.4558 53.4086 40.1887 53.1421C40.1002 53.0533 40.4207 51.4216 40.9015 49.516C41.9875 45.2123 42.78 40.6172 43.0882 36.8398L43.3244 33.9477L41.429 34.5021C39.1811 35.1596 39.2089 35.1354 38.6617 36.9237C38.4255 37.696 35.6543 43.6202 32.5032 50.0886C26.4758 62.4618 24.7003 66.6125 23.435 71.2876L22.6639 74.1365L22.5575 71.8679C22.2854 66.075 25.322 57.4314 32.5208 43.5061C34.5423 39.5963 36.0775 36.4038 35.932 36.4115C35.7865 36.4196 34.5065 37.0122 33.0877 37.728L30.5076 39.0301L29.3032 42.0141C26.5127 48.929 22.2556 56.4678 14.2829 68.6135C6.08668 81.0995 3.18227 86.4293 1.22855 92.5673C-0.147733 96.8907 -0.406405 103.797 0.649356 108.032C1.72515 112.347 4.48686 117.712 7.03102 120.428C12.4979 126.266 21.6806 130.18 34.8804 132.299C50.4441 134.798 69.6488 130.458 81.5135 121.76C84.1111 119.856 87.9159 116.115 89.3017 114.103C90.6361 112.166 90.9008 112.152 89.9258 114.07C87.1905 119.454 81.8417 124.967 75.0731 129.379C73.5503 130.372 72.5093 131.184 72.7599 131.184C73.9299 131.184 80.6844 129.171 84.0893 127.807C93.0808 124.205 97.6286 120.13 101.233 112.444C101.968 110.876 102.916 108.257 103.34 106.624C104.009 104.045 104.087 103.026 103.933 98.9001C103.713 92.9812 102.82 89.716 99.6593 83.2641C96.803 77.4343 93.8013 72.8993 86.2982 63.0779C76.0579 49.6736 72.2387 43.8944 70.4182 39.0476C69.3121 36.104 69.4098 36.2304 67.6842 35.5107L66.3125 34.9388L66.522 38.9153C66.6407 41.1705 67.053 44.1075 67.474 45.7003C68.1991 48.4407 71.0325 54.7005 72.9328 57.759L73.8814 59.2858L72.9767 58.6935C71.7976 57.9219 68.5604 53.9454 67.1145 51.4928C64.6463 47.3061 63.2918 42.1644 63.2689 36.8963L63.2566 34.0601L61.4115 33.6016C59.6026 33.1519 49.2376 32.7931 47.3791 33.1157ZM56.1373 59.3602C56.2599 59.4827 56.5045 61.5754 56.5615 62.9902C56.571 63.2317 56.9709 63.429 57.4496 63.429C59.2648 63.429 65.8602 66.4131 68.101 68.2481L69.0556 69.0302L67.1001 70.881C63.4749 74.3127 63.7908 74.1379 62.6606 73.3413C61.5046 72.5265 58.5022 70.998 57.3698 70.6476L56.579 70.4029L56.584 75.956C56.5864 79.0099 56.6852 81.869 56.8033 82.3096C56.9579 82.8853 57.8211 83.4934 59.8739 84.4728C66.8537 87.8023 70.2916 92.1615 69.8425 97.1115C69.3824 102.18 64.7506 107.258 58.6308 109.405L56.7548 110.063L56.4567 111.985C56.1826 113.755 56.074 113.925 55.0949 114.121C54.5097 114.238 53.0227 114.333 51.7905 114.333H49.55V112.578V110.823H47.9498C45.7002 110.823 41.6792 109.859 39.1165 108.706C36.606 107.576 33.7347 105.687 33.7347 105.165C33.7347 104.734 38.3654 99.2375 38.7285 99.2375C38.8683 99.2375 39.9164 99.8403 41.0575 100.577C43.2682 102.004 48.1484 103.658 49.0871 103.299C49.5658 103.115 49.6171 102.676 49.4252 100.405C49.3005 98.9321 49.1986 95.8866 49.1986 93.6366V89.5457L46.3894 88.3984C39.7399 85.6829 36.3319 82.0379 35.6536 76.9169C35.3594 74.6961 35.9892 71.4448 37.0808 69.5523C39.1593 65.9489 44.5559 62.7483 48.5835 62.7311C49.5233 62.7269 49.55 62.6721 49.55 60.7434V58.7602L52.7721 58.9884C54.5441 59.1141 56.0585 59.2812 56.1373 59.3602ZM47.0484 71.8131C45.4345 73.4252 45.2416 75.0187 46.4108 77.0728C47.0719 78.2341 48.7476 79.8219 48.9982 79.5246C49.0552 79.4575 49.2049 77.388 49.3314 74.9264C49.5974 69.7418 49.3964 69.4677 47.0484 71.8131ZM56.579 97.8333C56.579 100.343 56.7063 102.397 56.8616 102.397C57.0169 102.397 57.6552 101.87 58.2801 101.226C59.4757 99.9941 59.9959 98.1889 59.6043 96.6302C59.3657 95.6812 57.4208 93.2694 56.8939 93.2694C56.7207 93.2694 56.579 95.3232 56.579 97.8333Z" fill="white"/>
</svg>
