<svg width="82" height="72" viewBox="0 0 82 72" fill="none" xmlns="http://www.w3.org/2000/svg">
<path fill-rule="evenodd" clip-rule="evenodd" d="M5.96371 1.14332C3.21506 2.48887 1.45897 4.62847 0.528873 7.76351C0.0586173 9.34933 -0.0825158 18.1526 0.0441582 38.032C0.222312 65.9767 0.226938 66.07 1.51277 67.8532C2.22249 68.8366 3.78422 70.1238 4.98329 70.7136C7.02858 71.7188 9.27169 71.7949 41.0599 71.9413C78.6931 72.1146 78.526 72.129 80.5938 68.6387C81.7397 66.7044 81.7865 65.6712 81.9589 38.3181C82.0798 19.1314 81.9352 9.31615 81.5095 7.88021C80.6621 5.01978 78.2726 2.33555 75.4413 1.0638C73.2635 0.0855364 70.8879 0.0123081 40.7123 0.00143843C9.37986 -0.0105754 8.24384 0.0271836 5.96371 1.14332ZM75.4754 6.51007L77.442 8.45516V28.8214C77.442 40.0229 77.2806 49.1877 77.0828 49.1877C76.8856 49.1877 73.8269 46.8067 70.2858 43.8959C66.7447 40.9851 63.4234 38.2763 62.9046 37.8753C62.093 37.2483 61.1531 37.8261 56.1561 42.0229C52.9633 44.7048 50.2476 46.8994 50.1221 46.8994C49.996 46.8994 47.0489 43.8061 43.5726 40.0258C40.0963 36.246 36.9688 33.2603 36.6223 33.3918C36.2758 33.5234 29.0462 38.4182 20.5555 44.2695C12.0655 50.1214 4.99312 54.9086 4.83984 54.9086C4.68656 54.9086 4.56104 44.5939 4.56104 31.9874C4.56104 8.13422 4.61599 7.5587 7.087 5.57871C8.22302 4.66909 10.9057 4.58957 40.9148 4.57756L73.5087 4.56497L75.4754 6.51007ZM52.0031 13.5765C45.7006 16.7081 45.873 25.2762 52.2946 28.0857C55.5997 29.5314 58.4235 29.0709 61.0866 26.6515C65.3224 22.8025 64.3951 15.8986 59.3224 13.5176C56.7403 12.3059 54.5233 12.3236 52.0031 13.5765ZM58.3541 18.295C59.8592 19.7836 59.8222 21.612 58.2535 23.2642C55.9184 25.7219 51.9915 24.318 51.9915 21.025C51.9915 17.4958 55.8652 15.8334 58.3541 18.295ZM46.0801 48.797L49.7102 52.6963L55.8958 47.5355C61.171 43.1339 62.211 42.484 62.9647 43.1179C63.4512 43.5263 66.9072 46.3587 70.6456 49.412L77.442 54.9629V60.261C77.442 63.6049 77.1748 65.9212 76.7167 66.5402C76.044 67.451 73.5111 67.5099 41.3821 67.3646L6.77234 67.2084L5.63806 65.8234C4.841 64.8492 4.55584 63.7616 4.6773 62.1586L4.85025 59.88L20.4676 49.1179L36.0849 38.3564L39.2668 41.6264C41.0171 43.4257 44.0828 46.6517 46.0801 48.797Z" fill="white"/>
</svg>
