<svg width="172" height="192" viewBox="0 0 172 192" fill="none" xmlns="http://www.w3.org/2000/svg">
<path d="M171.048 95.667C171.048 110.597 171.018 125.525 171.078 140.453C171.089 142.881 170.223 144.372 168.044 145.546C161.317 149.168 154.695 152.989 148.034 156.735C136.506 163.222 124.978 169.711 113.451 176.2C105.132 180.883 96.7996 185.542 88.5164 190.281C86.4954 191.436 84.7148 191.529 82.6447 190.338C74.9978 185.933 67.2854 181.645 59.5975 177.314C52.1855 173.141 44.7735 168.968 37.3588 164.795C30.9381 161.182 24.5148 157.568 18.0914 153.958C12.8587 151.014 7.637 148.048 2.3825 145.145C0.716576 144.225 0.0201641 142.914 0.0228951 141.038C0.0474744 119.282 0.0447433 97.5241 0.0474744 75.7687C0.0474744 67.3489 0.0747846 58.9292 0.011971 50.5094C-0.00441518 48.4038 0.776659 47.0164 2.62283 45.9868C12.9953 40.208 23.3349 34.369 33.6828 28.552C45.5382 21.8882 57.3963 15.2273 69.2517 8.56083C73.9682 5.909 78.6929 3.27083 83.3821 0.567111C85.2009 -0.481604 86.815 0.083719 88.4044 0.974034C95.0299 4.6855 101.636 8.43247 108.254 12.1576C120.934 19.2938 133.617 26.4218 146.302 33.5525C153.796 37.7664 161.279 41.9995 168.798 46.1698C170.565 47.1503 171.062 48.5977 171.062 50.4684C171.04 65.5355 171.048 80.5999 171.048 95.667ZM163.901 95.7052C163.901 93.8399 163.901 91.9746 163.901 90.1066C163.901 77.8197 163.901 65.5301 163.904 53.2432C163.904 52.372 163.936 51.5964 162.951 51.0584C158.483 48.6114 154.064 46.0824 149.62 43.5917C139.185 37.7419 128.742 31.9166 118.315 26.0503C107.732 20.0967 97.1628 14.1157 86.6019 8.11567C85.8209 7.67325 85.2255 7.70329 84.469 8.13479C79.2063 11.1171 73.9163 14.0529 68.6482 17.0243C54.9466 24.7558 41.256 32.5065 27.5517 40.2298C21.2539 43.7774 14.9452 47.3059 8.60652 50.7798C7.53868 51.3642 7.15361 52.0333 7.15907 53.2404C7.20823 61.3407 7.18365 69.4409 7.18365 77.5411C7.18365 97.7016 7.18638 117.862 7.17819 138.025C7.17819 138.962 7.20823 139.738 8.22417 140.3C15.658 144.416 23.0591 148.592 30.4684 152.756C40.5377 158.418 50.6043 164.09 60.6736 169.757C68.64 174.239 76.6118 178.718 84.5783 183.202C85.1627 183.532 85.6652 183.699 86.3425 183.306C88.459 182.071 90.6329 180.935 92.7659 179.731C99.9184 175.692 107.063 171.641 114.21 167.594C116.417 166.346 118.621 165.09 120.833 163.85C126.467 160.69 132.106 157.547 137.735 154.379C145.863 149.81 153.963 145.191 162.123 140.682C163.401 139.975 163.942 139.257 163.934 137.758C163.876 123.739 163.901 109.724 163.901 95.7052Z" fill="white"/>
<path d="M13.1216 95.5386C13.1216 83.0223 13.1598 70.506 13.0861 57.9897C13.0724 55.824 13.9354 54.5267 15.7461 53.519C26.1978 47.6964 36.6276 41.8302 47.0601 35.9694C58.6314 29.4696 70.1973 22.9643 81.7633 16.4589C82.1592 16.235 82.5662 16.0247 82.9403 15.7653C84.6199 14.6018 86.2339 14.6483 88.0337 15.6669C101.061 23.0353 114.126 30.3408 127.169 37.6818C136.684 43.0373 146.172 48.4366 155.7 53.7675C157.328 54.677 157.994 55.9114 157.992 57.7466C157.967 83.0086 157.967 108.271 157.994 133.533C157.997 135.433 157.273 136.671 155.599 137.591C148.985 141.229 142.384 144.891 135.84 148.657C130.564 151.694 125.195 154.562 119.927 157.598C111.384 162.523 102.751 167.28 94.1621 172.117C92.062 173.299 89.9481 174.463 87.8835 175.708C86.3131 176.656 84.8247 176.631 83.2489 175.743C64.312 165.054 45.3696 154.376 26.4217 143.703C22.855 141.693 19.2828 139.691 15.6833 137.741C13.9109 136.78 13.0779 135.483 13.0888 133.369C13.1571 120.754 13.1216 108.145 13.1216 95.5386ZM29.7399 85.6468C30.2806 85.8817 30.1987 86.4142 30.3216 86.8102C35.6799 104.343 41.0218 121.879 46.3719 139.415C47.03 141.576 48.0323 142.471 49.4661 142.223C50.8234 141.988 51.386 140.947 51.386 138.653C51.386 110.027 51.386 81.4028 51.386 52.7762C51.386 52.0934 51.3833 51.4106 51.3696 50.7279C51.3451 49.5645 50.6814 48.8489 49.6272 48.5567C48.5348 48.2536 47.7073 48.7206 47.0683 49.6491C46.4429 50.5531 46.5521 51.5554 46.5521 52.5468C46.5466 75.1651 46.5494 97.7835 46.5385 120.402C46.5385 120.943 46.7214 121.543 46.2654 122.12C45.7082 121.317 45.7055 120.47 45.4706 119.703C41.6608 107.263 37.8647 94.8231 34.0631 82.3832C32.5337 77.38 31.0098 72.374 29.4531 67.3817C29.0408 66.0626 28.0248 65.4563 26.7494 65.6256C25.6379 65.7731 24.7995 66.7399 24.7094 68.0071C24.6793 68.414 24.693 68.8264 24.693 69.2361C24.693 88.6236 24.6902 108.011 24.693 127.399C24.693 127.852 24.6738 128.314 24.7394 128.762C24.9196 130.015 26.0011 131.001 27.129 130.985C28.2296 130.971 29.3439 129.917 29.4832 128.71C29.546 128.169 29.5242 127.62 29.5242 127.074C29.5269 113.738 29.5242 100.405 29.5351 87.0697C29.5269 86.6027 29.3357 86.081 29.7399 85.6468ZM64.8281 96.2104C64.8254 96.2104 64.8227 96.2104 64.8227 96.2104C64.8227 106.13 64.8227 116.051 64.8227 125.97C64.8227 134.117 64.82 142.261 64.8363 150.408C64.8391 152.033 65.8741 153.169 67.2424 153.163C68.4932 153.158 69.5528 151.981 69.6402 150.487C69.6621 150.124 69.6566 149.758 69.6566 149.394C69.6566 137.427 69.6539 125.46 69.6539 113.492C69.6539 108.396 69.6757 103.3 69.6402 98.2041C69.632 97.1608 69.9789 96.661 71.0549 96.7484C71.4154 96.7785 71.7813 96.7512 72.1473 96.7512C81.2007 96.7812 90.2567 96.814 99.3101 96.8413C100.703 96.8468 101.771 95.8718 101.877 94.5254C101.978 93.2336 101.151 92.2969 99.6706 92.0948C98.9059 91.991 98.1303 91.92 97.3601 91.92C88.7137 91.9091 80.07 91.9118 71.4236 91.9145C69.6648 91.9145 69.6566 91.9227 69.6566 90.0957C69.6539 76.1701 69.6566 62.2474 69.6566 48.3218C69.6566 47.0028 69.6785 45.6809 69.6484 44.3619C69.6293 43.5371 69.9734 43.0482 70.6999 42.6359C75.288 40.0332 79.8843 37.4414 84.4014 34.7131C85.7314 33.9102 86.7037 33.9867 87.9845 34.7486C94.5882 38.6786 101.238 42.5239 107.875 46.3937C109.48 47.3305 110.862 47.0902 111.693 45.7683C112.422 44.6049 111.876 43.1329 110.36 42.248C103.09 38.0122 95.7734 33.8556 88.5717 29.5078C86.7091 28.3826 85.2535 28.5519 83.5439 29.5651C78.0654 32.8123 72.5815 36.0459 67.0375 39.1784C65.4617 40.0687 64.7899 41.1283 64.7954 42.969C64.85 60.7153 64.8281 78.4642 64.8281 96.2104ZM130.378 97.423C130.378 109.434 130.378 121.445 130.381 133.456C130.381 134.002 130.356 134.554 130.436 135.089C130.621 136.335 131.714 137.301 132.853 137.299C133.94 137.296 135.029 136.245 135.177 134.999C135.239 134.461 135.215 133.91 135.215 133.363C135.215 110.251 135.215 87.138 135.226 64.0253C135.226 63.5555 134.986 62.9247 135.515 62.6516C135.977 62.4112 136.318 62.952 136.695 63.1677C139.104 64.5414 141.488 65.9588 143.908 67.3134C145.322 68.1054 146.59 67.7722 147.338 66.5214C148.045 65.3416 147.709 64.1427 146.409 63.2497C146.109 63.0448 145.795 62.8618 145.481 62.6761C140.387 59.6939 135.297 56.7034 130.195 53.7375C127.325 52.0688 124.455 50.3974 121.538 48.8134C120.009 47.9805 118.233 48.879 117.996 50.5285C117.807 51.8503 118.621 52.6396 119.659 53.2459C122.761 55.0566 125.839 56.9137 128.991 58.6397C130.07 59.2296 130.408 59.9205 130.406 61.114C130.365 73.2179 130.381 85.3191 130.378 97.423Z" fill="white"/>
</svg>
