<svg width="1300" height="500" viewBox="0 0 1300 600" fill="none" xmlns="http://www.w3.org/2000/svg">
<path d="M-2098.92 337.713C-2020.39 329.99 -1941.8 322.477 -1863.62 311.508C-1785.45 300.809 -1707.72 286.233 -1631.58 265.437C-1612.7 259.727 -1593.61 254.678 -1575 248.097L-1560.96 243.408C-1556.3 241.846 -1551.58 240.343 -1547.01 238.51L-1519.35 227.991L-1512.42 225.377L-1505.64 222.432L-1492.04 216.571C-1483.02 212.604 -1473.82 208.968 -1465.07 204.43L-1438.48 191.417C-1429.67 186.97 -1420.98 182.281 -1412.26 177.653C-1377.4 159.051 -1342.86 139.787 -1307.26 122.597C-1271.68 105.437 -1235.02 90.05 -1196.73 79.8922C-1177.58 75.0237 -1158.19 70.8163 -1138.57 68.352C-1128.8 66.8193 -1118.94 66.068 -1109.08 65.1364C-1104.16 64.6255 -1099.23 64.5353 -1094.3 64.2348C-1089.37 64.0244 -1084.44 63.6037 -1079.48 63.6037C-1039.96 62.612 -1000.41 65.2566 -961.247 70.5459C-922.055 75.6548 -883.251 83.2581 -844.717 91.8531C-806.182 100.508 -767.856 110.095 -729.679 120.103C-653.296 140.148 -577.392 161.966 -500.949 181.53C-424.506 201.034 -347.407 218.375 -269.261 229.133C-191.206 240.012 -112.045 244.31 -33.4513 238.179C45.0524 232.109 122.989 215.159 195.697 184.415C268.525 154.062 337.082 113.731 411.583 86.6841C486.113 59.8772 566.17 49.8697 645.003 55.1589C684.434 57.503 723.686 62.7021 762.46 70.2453C801.204 77.9388 839.559 87.5556 877.527 98.4647C953.491 120.253 1027.63 147.751 1102.25 173.536C1139.56 186.429 1177.02 198.961 1214.78 210.381C1252.6 221.71 1290.78 231.778 1329.4 239.892L1343.89 242.837C1348.73 243.829 1353.54 244.851 1358.44 245.572L1387.62 250.411L1416.99 254.107C1421.89 254.798 1426.78 255.189 1431.71 255.55L1446.47 256.722C1485.81 259.517 1525.39 259.216 1564.67 255.219C1525.42 259.336 1485.81 259.757 1446.47 257.112L1431.71 255.97C1426.78 255.61 1421.86 255.249 1416.99 254.558L1387.59 250.982L1358.38 246.203C1353.51 245.482 1348.67 244.49 1343.83 243.498L1329.31 240.583C1290.66 232.589 1252.39 222.642 1214.54 211.432C1176.7 200.103 1139.21 187.721 1101.84 174.918C1027.16 149.254 953.043 121.816 877.109 100.148C839.171 89.2987 800.875 79.7119 762.191 72.1086C723.477 64.6255 684.314 59.4564 644.973 57.1725C566.35 51.9734 486.621 62.041 412.449 88.8178C338.247 115.835 269.75 156.226 196.743 186.729C123.825 217.683 45.5603 234.783 -33.1824 240.944C-112.015 247.195 -191.415 242.988 -269.62 232.139C-347.914 221.26 -425.104 203.829 -501.576 184.205C-578.078 164.55 -653.954 142.642 -730.277 122.537C-768.423 112.469 -806.719 102.852 -845.194 94.1672C-883.67 85.5421 -922.414 77.9087 -961.516 72.7697C-1000.56 67.4504 -1039.99 64.8058 -1079.39 65.7374C-1084.32 65.7374 -1089.22 66.1281 -1094.15 66.3385C-1099.05 66.639 -1103.98 66.7292 -1108.88 67.2401C-1118.67 68.1717 -1128.5 68.893 -1138.24 70.4256C-1157.78 72.8599 -1177.07 77.0072 -1196.16 81.8456C-1234.28 91.9132 -1270.84 107.21 -1306.39 124.28C-1341.97 141.41 -1376.5 160.613 -1411.39 179.186C-1420.11 183.814 -1428.83 188.502 -1437.65 192.95L-1464.29 205.963C-1473.11 210.501 -1482.28 214.137 -1491.36 218.104L-1504.98 223.964L-1511.79 226.879L-1518.72 229.494L-1546.44 239.982C-1551.04 241.816 -1555.73 243.288 -1560.42 244.881L-1574.49 249.569C-1583.87 252.695 -1593.22 255.91 -1602.72 258.525L-1631.16 266.849C-1707.45 287.435 -1785.27 301.77 -1863.47 312.229C-1941.77 322.988 -2020.39 330.23 -2098.92 337.713Z" fill="white" fill-opacity="0.2"/>
<path d="M-2099.01 369.96C-2020.54 363.709 -1942.07 356.947 -1864.04 346.158C-1786.01 335.7 -1708.5 320.944 -1632.62 299.997L-1604.33 291.553L-1590.2 287.315L-1576.22 282.567L-1548.29 273.01L-1520.75 262.402C-1516.18 260.568 -1511.52 258.976 -1507.01 256.962L-1493.48 251.072L-1479.95 245.181C-1475.46 243.168 -1470.86 241.365 -1466.5 239.081C-1448.85 230.335 -1431.08 221.891 -1413.81 212.394C-1379.07 193.792 -1344.69 174.438 -1309.47 156.647C-1274.31 138.825 -1238.13 122.717 -1200.46 110.846C-1162.82 98.8855 -1123.78 91.8832 -1084.5 88.3971C-1064.84 86.8344 -1045.13 85.8426 -1025.41 85.9929C-1005.7 85.9028 -986.011 86.7743 -966.326 88.0665C-927.014 90.7713 -887.882 95.7299 -848.958 101.801C-810.035 107.841 -771.231 114.663 -732.517 121.906C-655.089 136.421 -578.049 152.77 -500.979 169.058C-462.474 177.293 -424.028 185.978 -385.732 195.234C-366.584 199.862 -347.526 204.761 -328.289 208.998L-299.522 215.58L-285.123 218.855L-270.695 221.861C-193.655 237.488 -115.122 247.075 -36.4684 245.482C2.81333 244.731 42.0653 240.824 80.66 233.461C99.9573 229.765 119.105 225.227 137.984 219.817C156.864 214.348 175.474 207.976 193.875 201.004C267.45 173.055 337.5 135.94 412.509 111.117C449.938 98.645 488.593 89.8396 527.636 84.5203C566.678 79.0808 606.199 77.0072 645.6 78.3295C685.001 79.6819 724.253 84.5804 762.908 92.304C801.562 99.9974 839.679 110.215 877.437 121.545C952.954 144.145 1027.01 171.222 1101.75 196.106C1139.09 208.607 1176.7 220.358 1214.6 230.997C1252.51 241.695 1290.78 250.982 1329.43 258.405C1406.65 273.401 1485.93 279.652 1564.38 271.718C1485.96 279.892 1406.62 273.882 1329.31 259.126C1290.6 251.823 1252.27 242.657 1214.3 232.079C1176.34 221.56 1138.67 209.93 1101.3 197.518C1026.5 172.755 952.446 145.737 876.959 123.258C839.231 111.988 801.174 101.801 762.579 94.1973C724.015 86.5339 684.852 81.6954 645.57 80.3731C606.289 79.1109 566.887 81.1845 527.964 86.6841C489.011 92.0335 450.536 100.839 413.256 113.311C338.486 138.134 268.525 175.279 194.801 203.408C176.37 210.411 157.7 216.842 138.731 222.341C119.762 227.811 100.555 232.379 81.1976 236.106C42.4536 243.529 3.05239 247.496 -36.3787 248.307C-115.271 249.99 -194.043 240.463 -271.263 224.866L-285.721 221.831L-300.119 218.525L-328.916 211.913C-348.153 207.646 -367.242 202.717 -386.36 198.089C-424.626 188.803 -463.011 180.088 -501.487 171.793C-578.497 155.414 -655.537 139.006 -732.905 124.4C-771.59 117.097 -810.364 110.245 -849.227 104.175C-888.091 98.0741 -927.163 93.0853 -966.385 90.3505C-986.011 89.0282 -1005.64 88.1567 -1025.29 88.2168C-1044.95 88.0665 -1064.6 89.0282 -1084.17 90.5609C-1123.3 93.9869 -1162.2 100.929 -1199.72 112.8C-1237.24 124.58 -1273.35 140.598 -1308.48 158.36C-1343.67 176.061 -1378.05 195.384 -1412.82 213.957C-1482.07 251.913 -1556.27 280.073 -1632.11 301.44C-1708.17 322.176 -1785.78 336.692 -1863.83 346.91C-1942.01 357.458 -2020.51 363.979 -2099.01 369.96Z" fill="white" fill-opacity="0.2"/>
<path d="M-2099.1 402.236C-2020.6 397.458 -1942.1 391.387 -1864.16 380.809C-1825.15 375.76 -1786.34 369.238 -1747.75 361.755L-1718.86 355.805C-1709.21 353.882 -1699.71 351.387 -1690.13 349.193C-1670.92 344.926 -1652.01 339.516 -1633.01 334.438C-1623.54 331.823 -1614.19 328.758 -1604.75 325.963C-1595.34 323.108 -1585.9 320.313 -1576.67 316.947L-1548.8 307.3C-1539.57 303.874 -1530.46 300.178 -1521.29 296.631L-1507.55 291.252C-1503.01 289.329 -1498.53 287.315 -1494.05 285.332L-1467.07 273.401L-1440.63 260.268C-1436.24 258.074 -1431.79 255.94 -1427.43 253.656L-1414.41 246.714C-1379.73 228.081 -1345.46 208.607 -1310.54 190.335C-1275.62 172.124 -1239.92 155.144 -1202.79 141.801L-1188.78 137.022C-1184.09 135.489 -1179.37 134.137 -1174.65 132.665C-1165.27 129.629 -1155.65 127.405 -1146.13 124.881C-1126.95 120.433 -1107.62 116.466 -1088.08 113.852C-1049.1 108.112 -1009.64 106.278 -970.269 106.278C-930.897 106.549 -891.556 108.803 -852.364 112.169C-813.172 115.535 -774.009 119.351 -734.907 123.619C-656.672 132.214 -578.676 142.852 -501.098 156.166C-462.324 163.048 -423.789 171.402 -385.852 182.011C-347.974 192.86 -310.425 204.55 -272.517 215.039C-196.732 235.685 -119.095 250.861 -40.5609 254.047C-1.33889 255.55 38.0324 253.476 76.8362 247.646C96.2531 244.701 115.521 240.884 134.549 236.045C153.578 231.177 172.367 225.437 190.977 219.096C265.389 193.671 336.723 159.532 412.12 136.271C449.759 124.61 488.324 116.015 527.247 109.945C566.141 103.814 605.512 100.388 644.943 100.899C684.344 101.26 723.656 106.068 762.221 114.062C800.815 121.996 838.753 132.785 876.332 144.415C895.121 150.245 913.881 156.226 932.581 162.356L988.621 180.959C1025.93 193.521 1063.15 206.263 1100.64 218.224C1175.56 242.176 1251.64 262.973 1329.13 276.586C1406.53 290.32 1485.69 295.61 1564.08 288.097C1485.72 295.88 1406.47 290.831 1329.01 277.338C1251.44 263.934 1175.23 243.378 1100.19 219.667C1062.67 207.766 1025.42 195.054 988.113 182.522L932.073 164.009C913.373 157.909 894.614 151.958 875.824 146.128C838.245 134.558 800.367 123.799 761.862 115.925C723.387 107.991 684.225 103.273 644.943 102.943C605.661 102.462 566.409 105.918 527.606 112.078C488.802 118.179 450.357 126.774 412.837 138.465C337.679 161.725 266.404 195.955 191.814 221.5C173.174 227.871 154.324 233.641 135.206 238.57C116.088 243.438 96.7609 247.315 77.2545 250.29C38.2715 256.181 -1.24918 258.314 -40.6504 256.842C-119.483 253.716 -197.329 238.6 -273.294 217.984C-311.232 207.435 -348.84 195.685 -386.599 184.806C-424.447 174.197 -462.862 165.813 -501.576 158.9C-579.064 145.527 -657.03 134.798 -735.176 126.113C-774.248 121.785 -813.411 117.909 -852.573 114.543C-891.735 111.117 -930.987 108.833 -970.299 108.532C-1009.58 108.502 -1048.92 110.275 -1087.79 115.985C-1107.26 118.57 -1126.53 122.507 -1145.65 126.924C-1155.15 129.419 -1164.71 131.643 -1174.06 134.648C-1178.75 136.091 -1183.47 137.413 -1188.16 138.946L-1202.11 143.694C-1239.12 156.947 -1274.75 173.837 -1309.65 191.988C-1344.54 210.2 -1378.83 229.614 -1413.57 248.247L-1426.62 255.159C-1430.99 257.443 -1435.44 259.547 -1439.86 261.77L-1466.35 274.903L-1493.39 286.804C-1497.9 288.758 -1502.38 290.801 -1506.92 292.725L-1520.69 298.104C-1529.89 301.65 -1539 305.347 -1548.26 308.743L-1576.19 318.359C-1585.45 321.695 -1594.89 324.49 -1604.33 327.345C-1613.77 330.14 -1623.12 333.205 -1632.62 335.79C-1651.65 340.809 -1670.62 346.158 -1689.83 350.365C-1699.42 352.529 -1708.95 354.994 -1718.62 356.887L-1747.54 362.777C-1786.19 370.14 -1825.03 376.571 -1864.07 381.47C-1942.07 391.898 -2020.57 397.728 -2099.1 402.236Z" fill="white" fill-opacity="0.2"/>
<path d="M-2099.19 434.483C-2020.57 431.177 -1941.95 425.798 -1863.92 415.399C-1824.88 410.471 -1786.04 403.889 -1747.42 396.376L-1718.53 390.335L-1711.3 388.833L-1704.14 387.12L-1689.8 383.664C-1670.59 379.336 -1651.68 373.897 -1632.71 368.698C-1594.98 357.518 -1557.43 345.527 -1521.02 330.561C-1502.59 323.649 -1484.81 315.114 -1466.77 307.24C-1457.87 303.063 -1449.15 298.495 -1440.31 294.137L-1427.1 287.526C-1422.71 285.302 -1418.41 282.897 -1414.05 280.613C-1344.69 243.378 -1277.14 201.906 -1203.63 172.815C-1166.89 158.48 -1128.92 147.18 -1090.2 139.757C-1070.91 135.76 -1051.37 133.025 -1031.84 130.471C-1012.27 128.187 -992.643 126.384 -972.957 125.212C-933.616 122.867 -894.215 122.477 -854.843 122.988C-815.472 123.529 -776.13 124.13 -736.759 125.302C-658.076 127.616 -579.333 132.454 -501.248 143.123C-462.235 148.803 -423.521 157.067 -385.942 169.239C-348.482 181.62 -311.859 196.136 -274.638 209.028C-200.406 234.873 -124.053 256.091 -45.8482 264.175C-6.77554 267.991 32.7153 267.781 71.7282 263.483C91.2346 261.32 110.651 258.134 129.829 253.957C149.007 249.749 168.006 244.641 186.855 238.961C262.162 216.151 334.692 184.656 410.358 162.357C448.176 151.147 486.651 142.462 525.395 135.339C564.139 128.337 603.421 123.408 642.882 123.198C662.597 123.078 682.343 123.979 701.939 126.203C721.535 128.397 740.982 131.733 760.279 135.85C798.844 144.115 836.632 155.444 874.181 167.345C911.73 179.246 949.13 191.598 986.56 203.919C1023.93 216.391 1061.3 228.803 1098.94 240.313C1136.55 251.913 1174.54 262.281 1212.81 271.538C1251.08 280.764 1289.64 288.758 1328.51 294.949C1406.17 307.45 1485.36 311.958 1563.81 304.776C1485.39 312.229 1406.14 307.961 1328.42 295.7C1289.52 289.629 1250.9 281.755 1212.57 272.65C1174.28 263.514 1136.22 253.266 1098.52 241.786C1060.82 230.335 1023.42 217.954 986.052 205.542C948.622 193.281 911.222 180.959 873.673 169.118C836.154 157.278 798.396 145.978 759.921 137.774C740.683 133.686 721.296 130.381 701.76 128.217C682.223 126.023 662.597 125.121 642.941 125.302C603.63 125.542 564.498 130.501 525.813 137.533C487.129 144.686 448.743 153.401 411.015 164.641C335.528 186.97 263.059 218.525 187.572 241.485C168.693 247.195 149.634 252.334 130.367 256.571C111.1 260.779 91.593 263.994 71.9969 266.218C32.7749 270.576 -6.86527 270.816 -46.147 267.03C-124.74 259.006 -201.272 237.789 -275.684 211.973C-312.904 199.051 -349.557 184.475 -386.868 172.094C-424.238 159.952 -462.802 151.688 -501.666 145.978C-579.572 135.249 -658.225 130.32 -736.878 127.916C-776.19 126.714 -815.561 126.053 -854.903 125.482C-894.244 124.941 -933.586 125.272 -972.838 127.586C-1051.25 132.033 -1129.67 145.707 -1202.91 174.768C-1276.25 203.679 -1343.79 245.031 -1413.24 282.236C-1417.6 284.55 -1421.9 286.925 -1426.33 289.148L-1439.56 295.76C-1448.4 300.118 -1457.15 304.686 -1466.09 308.863C-1484.16 316.737 -1501.96 325.272 -1520.42 332.184C-1556.93 347.12 -1594.51 359.141 -1632.29 370.23C-1651.32 375.369 -1670.26 380.749 -1689.5 385.016L-1703.87 388.412L-1711.07 390.125L-1718.29 391.628L-1747.21 397.578C-1785.9 404.971 -1824.76 411.462 -1863.83 416.241C-1941.89 426.308 -2020.54 431.447 -2099.19 434.483Z" fill="white" fill-opacity="0.2"/>
<path d="M-2099.25 466.759C-2020.39 464.896 -1941.53 460.208 -1863.29 449.93C-1824.13 445.121 -1785.24 438.45 -1746.52 430.876C-1727.23 426.759 -1707.9 422.882 -1688.78 417.954L-1674.41 414.438L-1667.21 412.695L-1660.07 410.711L-1631.58 402.747C-1593.79 391.447 -1556.24 379.186 -1519.77 364.1C-1501.33 357.067 -1483.47 348.592 -1465.46 340.568C-1460.92 338.615 -1456.56 336.301 -1452.13 334.107L-1438.93 327.435C-1430.12 322.988 -1421.28 318.63 -1412.61 313.852C-1377.84 295.129 -1343.64 275.324 -1308.99 256.301C-1274.37 237.248 -1239.3 218.885 -1202.91 203.318C-1166.56 187.751 -1128.98 175.099 -1090.62 165.572C-1071.48 160.734 -1052.12 156.737 -1032.7 153.16C-1013.25 149.795 -993.748 146.669 -974.122 144.295C-934.93 139.366 -895.559 136.271 -856.187 133.777C-816.816 131.342 -777.445 128.638 -738.044 126.564C-698.642 124.49 -659.151 123.198 -619.661 123.438C-599.915 123.619 -580.17 124.1 -560.454 125.061C-540.739 126.083 -520.993 127.285 -501.367 129.719C-462.145 134.408 -423.162 142.702 -386.001 156.586C-376.711 160.073 -367.63 163.919 -358.459 167.646L-331.335 179.577C-313.263 187.541 -295.22 195.595 -277.118 203.408C-240.883 219.036 -204.23 233.701 -166.8 246.113C-148.1 252.334 -129.221 257.984 -110.133 262.943C-91.0745 267.901 -71.8369 272.229 -52.42 275.264C-32.9733 278.269 -13.3774 280.253 6.27843 281.124C25.9342 281.936 45.6498 281.695 65.2757 280.343C104.557 277.638 143.361 270.095 181.448 260.027C257.712 239.862 331.316 210.681 407.251 188.803C445.219 177.834 483.634 168.638 522.229 160.313C560.823 152.079 600.045 145.888 639.596 144.836C679.147 143.724 718.697 148.653 757.232 157.308C795.827 165.903 833.555 177.743 871.134 189.855L983.782 226.399C1021.27 238.72 1058.85 250.861 1096.73 261.921C1134.58 273.07 1172.84 282.777 1211.35 291.372C1249.85 299.967 1288.63 307.33 1327.67 312.98C1405.69 324.31 1485 328.127 1563.66 321.245C1485.03 328.397 1405.66 324.821 1327.55 313.731C1288.48 308.202 1249.64 300.959 1211.08 292.484C1172.54 283.979 1134.22 274.423 1096.28 263.363C1058.34 252.364 1020.76 240.253 983.244 227.961L870.477 191.598C832.928 179.517 795.2 167.736 756.724 159.201C718.279 150.606 678.937 145.737 639.566 146.91C600.195 147.991 561.122 154.212 522.587 162.477C484.052 170.831 445.667 180.058 407.789 191.057C332.003 212.965 258.428 242.236 181.986 262.552C143.809 272.71 104.826 280.313 65.3355 283.078C45.62 284.43 25.8149 284.701 6.03959 283.919C-13.7058 283.078 -33.4214 281.094 -52.9876 278.089C-72.5538 275.054 -91.881 270.726 -110.999 265.768C-130.147 260.809 -149.086 255.159 -167.846 248.968C-205.395 236.556 -242.138 221.921 -278.432 206.293C-296.564 198.45 -314.577 190.366 -332.65 182.402L-359.744 170.471C-368.885 166.744 -377.966 162.897 -387.166 159.441C-424.028 145.617 -462.773 137.323 -501.845 132.604C-521.381 130.17 -541.037 128.938 -560.723 127.886C-580.409 126.925 -600.094 126.414 -619.81 126.203C-659.241 125.933 -698.642 127.165 -738.044 129.209C-777.415 131.222 -816.786 133.897 -856.158 136.271C-895.529 138.705 -934.841 141.771 -973.973 146.639C-993.539 148.983 -1013.02 152.049 -1032.43 155.414C-1051.82 158.991 -1071.12 162.958 -1090.24 167.736C-1128.5 177.203 -1165.99 189.765 -1202.26 205.242C-1238.55 220.719 -1273.59 239.021 -1308.21 258.014C-1342.83 277.007 -1377.07 296.752 -1411.9 315.475C-1420.56 320.253 -1429.43 324.58 -1438.27 329.028L-1451.51 335.7C-1455.93 337.894 -1460.29 340.238 -1464.86 342.161C-1482.9 350.185 -1500.8 358.66 -1519.26 365.662C-1555.79 380.719 -1593.4 392.98 -1631.28 404.19L-1659.84 412.064L-1666.97 414.017L-1674.17 415.76L-1688.57 419.246C-1707.72 424.115 -1727.08 427.961 -1746.4 432.018C-1785.15 439.502 -1824.1 446.053 -1863.29 450.711C-1941.5 460.719 -2020.39 465.136 -2099.25 466.759Z" fill="white" fill-opacity="0.2"/>
<path d="M-2099.34 499.006C-2020.15 498.615 -1940.87 494.588 -1862.31 484.4C-1823 479.682 -1783.92 472.92 -1745.09 465.226C-1725.73 461.049 -1706.32 457.082 -1687.17 452.063L-1672.77 448.487L-1665.57 446.684L-1658.43 444.67L-1629.84 436.556L-1622.7 434.513L-1615.62 432.229L-1601.5 427.691L-1587.37 423.153L-1580.29 420.869L-1573.3 418.344L-1545.37 408.217L-1538.41 405.662L-1531.54 402.867L-1517.76 397.278C-1499.27 390.125 -1481.38 381.62 -1463.34 373.446C-1458.8 371.462 -1454.38 369.208 -1449.98 366.954L-1436.72 360.223C-1427.91 355.685 -1418.98 351.387 -1410.31 346.549C-1340.56 308.863 -1273.14 266.549 -1200.97 233.311C-1164.92 216.692 -1127.66 202.687 -1089.7 191.237C-1051.7 179.847 -1013.05 170.741 -974.093 163.348C-935.14 155.865 -895.947 150.005 -856.725 144.415C-817.503 138.915 -778.371 132.725 -739.119 127.315C-699.867 121.936 -660.436 117.458 -620.826 115.174C-601.021 113.972 -581.185 113.521 -561.38 113.431C-541.545 113.401 -521.68 114.002 -501.905 115.925C-462.414 119.712 -423.103 128.367 -386.479 144.205C-381.879 146.158 -377.398 148.262 -372.888 150.366C-368.407 152.499 -363.866 154.513 -359.415 156.737L-333.008 170.531L-306.632 184.325L-280.344 198.239C-245.214 216.631 -209.697 234.212 -173.193 249.599C-154.941 257.293 -136.48 264.445 -117.78 270.846C-99.0804 277.338 -80.1116 282.897 -60.8143 287.105C-22.2196 295.61 17.3907 299.246 56.8815 298.134C96.4022 297.112 135.624 290.952 174.219 282.236C212.814 273.521 250.841 262.311 288.689 250.591L345.505 233.04L373.914 224.265L388.103 219.877C392.853 218.435 397.632 217.202 402.412 215.85L459.736 200.012C478.854 194.843 498.062 189.885 517.299 185.136C555.775 175.7 594.907 167.856 634.637 166.233C674.367 164.28 714.126 169.509 752.721 178.465C791.405 187.39 829.164 199.742 866.802 212.033L979.958 248.577C1017.66 260.749 1055.47 272.619 1093.62 283.288C1131.77 294.017 1170.33 303.033 1209.14 311.057C1247.91 319.051 1286.98 325.843 1326.23 330.951C1404.74 341.169 1484.32 344.355 1563.3 337.743C1484.35 344.595 1404.74 341.65 1326.14 331.703C1286.83 326.714 1247.73 320.042 1208.9 312.169C1170.06 304.265 1131.41 295.369 1093.2 284.731C1055 274.152 1017.15 262.281 979.42 250.14L866.235 213.716C828.566 201.455 790.838 189.163 752.273 180.298C713.768 171.402 674.217 166.263 634.697 168.247C595.176 169.9 556.193 177.743 517.778 187.21C498.57 191.988 479.392 196.977 460.274 202.146L403.039 218.044C398.289 219.396 393.48 220.628 388.73 222.071L374.541 226.459L346.163 235.264L289.376 252.875C251.528 264.625 213.471 275.925 174.757 284.701C136.102 293.476 96.6711 299.727 56.9413 300.779C17.2414 301.951 -22.6079 298.314 -61.4117 289.81C-80.8286 285.602 -99.9467 280.012 -118.706 273.521C-137.496 267.09 -156.046 259.967 -174.328 252.274C-210.921 236.887 -246.589 219.306 -281.748 200.914L-308.035 186.97L-334.353 173.175L-360.7 159.381C-365.121 157.127 -369.632 155.144 -374.112 153.01C-378.593 150.906 -383.074 148.773 -387.615 146.849C-423.849 131.132 -462.862 122.477 -502.144 118.66C-521.8 116.737 -541.575 116.106 -561.35 116.106C-581.126 116.166 -600.901 116.616 -620.647 117.758C-660.137 119.982 -699.509 124.4 -738.731 129.749C-777.953 135.099 -817.115 141.26 -856.337 146.729C-895.559 152.259 -934.721 158.089 -973.615 165.512C-1012.51 172.845 -1051.1 181.891 -1089.04 193.221C-1126.95 204.61 -1164.11 218.525 -1200.1 235.084C-1272.19 268.172 -1339.61 310.396 -1409.45 348.021C-1418.11 352.83 -1427.07 357.157 -1435.88 361.665L-1449.18 368.397C-1453.6 370.651 -1458.02 372.905 -1462.56 374.888C-1480.63 383.063 -1498.59 391.538 -1517.11 398.69C-1553.76 413.927 -1591.43 426.459 -1629.4 437.879L-1658.01 445.903L-1665.18 447.886L-1672.41 449.659L-1686.84 453.205C-1706.02 458.194 -1725.46 462.071 -1744.85 466.188C-1783.74 473.761 -1822.85 480.403 -1862.19 485.001C-1940.87 495.099 -2020.15 498.855 -2099.34 499.006Z" fill="white" fill-opacity="0.2"/>
<path d="M-2099.43 531.282C-2019.79 532.334 -1940.01 528.968 -1860.96 518.87C-1821.41 514.212 -1782.13 507.39 -1743.09 499.517L-1713.9 493.145L-1706.62 491.553L-1699.39 489.719L-1684.9 486.053L-1670.41 482.387L-1663.18 480.553L-1656.01 478.48L-1627.3 470.185C-1589.25 458.435 -1551.46 445.662 -1514.78 430.125C-1496.23 422.852 -1478.24 414.227 -1460.14 405.933C-1455.57 403.919 -1451.15 401.635 -1446.73 399.351L-1433.41 392.559C-1424.56 387.991 -1415.6 383.604 -1406.88 378.735C-1336.8 340.689 -1269.23 297.894 -1197.45 262.762C-1161.6 245.212 -1124.68 229.825 -1087.04 216.571C-1049.37 203.378 -1011.07 192.109 -972.45 182.191C-933.855 172.184 -894.932 163.469 -856.068 154.723C-817.204 146.068 -778.55 136.301 -739.657 127.526C-700.763 118.81 -661.571 111.147 -621.931 106.459C-602.126 103.994 -582.231 102.432 -562.306 101.5C-542.382 100.478 -522.367 100.448 -502.443 102.041C-462.653 105.076 -422.893 114.152 -386.957 132.154C-350.961 149.765 -318.012 172.635 -284.078 193.491C-250.263 214.618 -216.059 235.204 -180.721 253.596C-163.066 262.792 -145.113 271.417 -126.831 279.291C-108.58 287.225 -89.9395 294.107 -70.8214 299.547C-32.615 310.426 7.05522 316.076 46.7552 316.737C66.6201 317.007 86.485 316.045 106.26 314.122C126.036 312.109 145.721 309.133 165.258 305.467C184.824 301.801 204.211 297.383 223.538 292.574C242.835 287.706 262.103 282.627 281.161 276.827L395.87 243.108L510.758 209.96C549.084 199.111 588.186 189.825 628.125 187.39C648.05 186.098 668.094 186.759 687.959 188.893C707.824 191.057 727.48 194.723 746.896 199.321C785.73 208.577 823.578 221.41 861.396 233.882C899.244 246.323 937.301 258.224 975.238 270.396C1013.24 282.447 1051.35 294.077 1089.83 304.325C1128.3 314.663 1167.26 323.018 1206.39 330.501C1245.52 337.924 1284.89 344.145 1324.44 348.743C1403.54 357.909 1483.54 360.493 1562.97 354.152C1483.54 360.734 1403.51 358.42 1324.35 349.494C1284.77 344.986 1245.34 338.916 1206.18 331.613C1167.02 324.22 1128 316.015 1089.44 305.768C1050.87 295.61 1012.73 283.949 974.731 271.958C936.763 259.817 898.706 247.976 860.828 235.565C822.98 223.243 785.192 210.471 746.448 201.305C707.794 192.109 667.944 186.91 628.245 189.554C588.545 192.018 549.591 201.275 511.325 212.184L396.497 245.452L281.818 279.291C262.76 285.091 243.463 290.23 224.135 295.099C204.778 299.937 185.332 304.385 165.735 308.082C146.139 311.778 126.394 314.783 106.529 316.827C86.6641 318.81 66.6798 319.802 46.7253 319.532C6.78634 318.9 -33.093 313.281 -71.5682 302.342C-90.8058 296.902 -109.625 289.99 -127.967 282.026C-146.338 274.152 -164.351 265.497 -182.065 256.301C-217.523 237.879 -251.816 217.323 -285.661 196.196C-319.626 175.249 -352.515 152.409 -388.242 134.858C-423.76 117.037 -463.161 107.991 -502.652 104.926C-522.457 103.333 -542.322 103.333 -562.187 104.325C-582.052 105.227 -601.887 106.759 -621.632 109.194C-661.153 113.822 -700.255 121.425 -739.119 130.08C-777.982 138.795 -816.637 148.502 -855.56 157.127C-894.454 165.843 -933.317 174.528 -971.882 184.475C-1010.45 194.363 -1048.71 205.572 -1086.32 218.675C-1123.9 231.838 -1160.73 247.135 -1196.55 264.626C-1268.21 299.607 -1335.84 342.311 -1406.01 380.328C-1414.74 385.196 -1423.7 389.554 -1432.57 394.122L-1445.89 400.914C-1450.34 403.198 -1454.76 405.482 -1459.33 407.496C-1477.5 415.76 -1495.51 424.385 -1514.09 431.658C-1550.86 447.165 -1588.71 459.937 -1626.83 471.628L-1655.59 479.832L-1662.79 481.876L-1670.05 483.679L-1684.57 487.285L-1699.09 490.891L-1706.35 492.695L-1713.66 494.257L-1742.88 500.538C-1781.98 508.262 -1821.29 514.994 -1860.87 519.532C-1939.98 529.449 -2019.79 532.574 -2099.43 531.282Z" fill="white" fill-opacity="0.2"/>
<path d="M-2099.52 563.528C-2019.32 566.053 -1938.9 563.318 -1859.26 553.251L-1844.33 551.417L-1836.86 550.486L-1829.42 549.344L-1799.67 544.746L-1792.23 543.574L-1784.82 542.191L-1770.03 539.426C-1760.21 537.503 -1750.29 535.94 -1740.52 533.626L-1711.13 527.135C-1706.23 526.113 -1701.36 524.881 -1696.49 523.619L-1681.91 519.892C-1662.4 515.204 -1643.23 509.254 -1623.96 503.634C-1585.72 491.523 -1547.7 478.48 -1510.83 462.612C-1492.16 455.219 -1474.12 446.353 -1455.9 437.999C-1451.3 435.955 -1446.91 433.581 -1442.43 431.297L-1429.04 424.415C-1420.14 419.787 -1411.15 415.339 -1402.37 410.411C-1331.87 371.853 -1264 328.517 -1192.52 291.583C-1156.79 273.13 -1120.2 256.361 -1082.89 241.425C-1045.58 226.459 -1007.67 213.055 -969.492 200.583C-931.316 188.082 -892.871 176.421 -854.575 164.49C-816.249 152.559 -778.371 139.246 -740.045 127.195C-720.897 121.124 -701.6 115.474 -682.153 110.426C-662.706 105.347 -643.08 100.869 -623.305 97.3528C-613.447 95.4294 -603.47 94.1071 -593.523 92.5744C-583.545 91.3723 -573.568 90.05 -563.531 89.2987C-543.517 87.3453 -523.323 86.8043 -503.22 88.0365C-463.071 90.4106 -422.864 100.328 -387.645 120.433C-379.012 125.662 -370.169 130.501 -361.805 136.121C-353.381 141.65 -345.137 147.45 -336.981 153.341L-288.409 189.133C-256.028 212.965 -223.438 236.526 -189.443 257.864C-172.446 268.532 -155.12 278.66 -137.376 288.006C-119.692 297.443 -101.381 305.617 -82.5014 312.259C-63.6522 318.991 -44.2951 324.28 -24.6692 328.157C-5.07313 332.124 14.8218 334.678 34.8062 335.88C74.775 338.405 114.923 335.459 154.533 329.539C194.173 323.559 233.306 314.573 272.08 304.265C310.854 293.927 349.329 282.477 387.774 270.876L445.427 253.476C464.605 247.556 483.634 241.184 502.752 235.054C540.928 222.792 579.971 211.823 620.179 208.607C640.253 207.015 660.446 207.405 680.461 209.509C700.475 211.613 720.28 215.369 739.816 220.088C778.919 229.554 816.886 242.867 854.973 255.55C874.002 261.951 893.15 267.901 912.298 273.972L969.741 292.094C1008.07 304.054 1046.54 315.474 1085.44 325.332C1124.3 335.309 1163.7 343.033 1203.22 350.035C1242.74 356.917 1282.5 362.567 1322.41 366.744C1402.23 374.949 1482.73 376.932 1562.79 370.861C1482.76 377.172 1402.2 375.459 1322.35 367.495C1282.41 363.468 1242.62 357.939 1203.07 351.177C1163.52 344.325 1124.06 336.722 1085.14 326.834C1046.18 317.037 1007.65 305.617 969.323 293.716L911.879 275.655C892.731 269.614 873.554 263.664 854.495 257.293C816.378 244.641 778.441 231.387 739.458 222.011C719.981 217.323 700.266 213.626 680.341 211.553C660.446 209.479 640.372 209.118 620.418 210.711C580.449 213.987 541.585 224.896 503.469 237.218C484.351 243.348 465.322 249.749 446.144 255.7L388.491 273.16C350.076 284.791 311.571 296.301 272.767 306.669C233.963 317.007 194.741 326.083 154.981 332.124C115.252 338.104 74.9242 341.139 34.7165 338.645C14.6424 337.473 -5.37174 334.888 -25.1172 330.921C-44.8626 327.015 -64.3393 321.725 -83.3379 314.964C-102.366 308.322 -120.827 300.088 -138.601 290.621C-156.435 281.245 -173.82 271.117 -190.907 260.418C-225.051 239.051 -257.731 215.489 -290.142 191.658L-338.654 155.805C-346.779 149.915 -354.994 144.145 -363.359 138.645C-371.663 133.055 -380.475 128.217 -389.019 123.018C-423.79 103.123 -463.519 93.2656 -503.339 90.8614C-523.293 89.6293 -543.338 90.1402 -563.262 92.0635C-573.24 92.7848 -583.187 94.1071 -593.105 95.3092C-602.992 96.8118 -612.94 98.1041 -622.768 100.027C-642.483 103.483 -662.049 107.931 -681.436 112.98C-700.853 117.999 -720.091 123.619 -739.239 129.659C-777.535 141.65 -815.442 154.934 -853.828 166.834C-892.183 178.765 -930.599 190.366 -968.775 202.807C-1006.92 215.249 -1044.8 228.562 -1082.08 243.468C-1119.36 258.344 -1155.89 275.054 -1191.59 293.446C-1262.99 330.26 -1330.91 373.536 -1401.5 412.033C-1410.28 416.932 -1419.28 421.41 -1428.21 426.038L-1441.62 432.92C-1446.1 435.204 -1450.52 437.578 -1455.12 439.622C-1473.4 447.976 -1491.48 456.812 -1510.18 464.235C-1547.13 480.072 -1585.19 493.115 -1623.51 505.166C-1642.81 510.726 -1662.02 516.616 -1681.55 521.245L-1696.16 524.941C-1701.03 526.203 -1705.9 527.435 -1710.8 528.427L-1740.22 534.828C-1749.99 537.112 -1759.94 538.645 -1769.79 540.538L-1784.61 543.273L-1792.02 544.625L-1799.46 545.767L-1829.24 550.275L-1836.68 551.387L-1844.15 552.289L-1859.08 554.092C-1938.87 563.799 -2019.32 566.323 -2099.52 563.528Z" fill="white" fill-opacity="0.2"/>
<path d="M-2099.58 595.805C-2018.72 599.832 -1937.5 597.668 -1857.14 587.631C-1776.72 578.194 -1697.32 560.794 -1619.99 536.842C-1610.31 533.867 -1600.78 530.441 -1591.16 527.255C-1581.57 524.039 -1571.95 520.884 -1562.51 517.157L-1534.1 506.399C-1524.69 502.702 -1515.43 498.585 -1506.08 494.708L-1492.1 488.788C-1487.41 486.864 -1482.9 484.55 -1478.3 482.447L-1450.79 469.554C-1441.71 465.106 -1432.78 460.298 -1423.76 455.67C-1414.76 451.042 -1405.74 446.384 -1396.9 441.425C-1325.93 402.266 -1257.61 358.329 -1186.33 319.471C-1150.67 300.118 -1114.37 281.966 -1077.39 265.317C-1040.44 248.577 -1002.98 233.07 -965.34 218.014C-927.701 202.988 -889.883 188.412 -852.334 173.236C-814.814 157.999 -777.922 141.199 -740.313 125.963C-702.764 110.636 -664.379 97.0823 -624.888 87.6157C-605.142 83.0176 -585.218 78.9906 -565.054 76.5864C-544.95 73.7915 -524.548 72.7697 -504.235 73.6412C-494.078 74.1822 -483.952 75.1739 -473.885 76.7367C-463.848 78.4496 -453.87 80.4932 -444.102 83.4684C-434.364 86.4136 -424.715 89.8095 -415.455 94.1371C-410.735 96.1206 -406.314 98.645 -401.744 100.929C-397.382 103.544 -392.812 105.918 -388.63 108.833C-380.146 114.453 -371.513 119.862 -363.448 126.113C-355.322 132.244 -347.406 138.645 -339.61 145.166C-324.046 158.239 -308.752 171.583 -293.338 184.806C-262.6 211.312 -231.712 237.668 -199.241 261.921C-183.02 274.032 -166.382 285.632 -149.265 296.451C-132.238 307.36 -114.315 316.767 -95.7641 324.731C-58.663 340.658 -19.0825 350.696 21.0058 355.144C41.05 357.428 61.2733 358.239 81.4668 357.939C101.66 357.668 121.854 356.286 141.928 354.002C182.106 349.494 221.865 341.59 261.147 331.973C280.803 327.165 300.339 321.906 319.816 316.406C339.292 310.906 358.709 305.106 377.977 298.946L435.929 280.704C455.136 274.302 474.105 267.24 493.164 260.388C531.221 246.684 570.144 233.882 610.68 229.764C630.903 227.691 651.306 227.811 671.5 229.794C691.693 231.778 711.707 235.565 731.393 240.373C770.824 250.02 809.031 263.784 847.416 276.677C866.594 283.168 885.951 289.118 905.278 295.189L963.29 313.311C1002 325.181 1040.93 336.451 1080.27 345.948C1119.58 355.625 1159.46 362.747 1199.43 369.208C1239.4 375.58 1279.58 380.719 1319.9 384.415C1400.53 391.688 1481.72 393.1 1562.52 387.3C1481.75 393.341 1400.53 392.229 1319.84 385.166C1279.52 381.59 1239.28 376.571 1199.28 370.35C1159.28 363.979 1119.34 356.977 1079.94 347.42C1040.54 337.984 1001.59 326.714 962.842 314.903L904.8 296.842C885.473 290.801 866.086 284.851 846.878 278.359C808.463 265.497 770.287 251.823 730.975 242.236C711.349 237.458 691.424 233.701 671.35 231.748C651.276 229.794 630.993 229.674 610.919 231.778C570.652 235.895 531.937 248.668 493.91 262.402C474.852 269.284 455.883 276.346 436.645 282.807L378.664 301.109C359.367 307.3 339.95 313.13 320.473 318.63C300.997 324.16 281.4 329.449 261.715 334.287C222.343 343.934 182.524 351.928 142.197 356.496C122.063 358.81 101.78 360.223 81.4967 360.523C61.2136 360.854 40.9005 360.042 20.707 357.788C-19.6502 353.371 -59.4696 343.303 -96.8694 327.315C-115.569 319.321 -133.672 309.855 -150.818 298.885C-168.025 288.066 -184.723 276.436 -201.003 264.295C-233.594 240.012 -264.571 213.626 -295.339 187.12C-310.723 173.867 -326.018 160.523 -341.522 147.45C-349.288 140.929 -357.145 134.558 -365.24 128.487C-373.246 122.266 -381.789 116.917 -390.213 111.327C-394.365 108.442 -398.816 106.098 -403.148 103.514C-407.658 101.26 -412.02 98.7652 -416.65 96.8118C-425.761 92.5143 -435.29 89.1784 -444.909 86.2633C-454.528 83.3182 -464.415 81.3046 -474.333 79.5916C-484.28 78.0289 -494.317 77.0372 -504.384 76.4962C-524.518 75.6247 -544.711 76.5864 -564.725 79.3512C-584.8 81.6953 -604.635 85.6923 -624.29 90.2603C-663.602 99.6367 -701.898 113.1 -739.358 128.367C-776.907 143.544 -813.829 160.313 -851.408 175.52C-889.017 190.666 -926.835 205.211 -964.473 220.178C-1039.78 250.02 -1114.22 282.387 -1185.35 321.275C-1256.56 359.982 -1324.94 403.859 -1396.03 442.988C-1404.88 447.946 -1413.9 452.574 -1422.92 457.233C-1431.94 461.831 -1440.9 466.639 -1450.01 471.087L-1477.59 483.979C-1482.19 486.083 -1486.73 488.367 -1491.42 490.32L-1505.43 496.211C-1514.78 500.088 -1524.07 504.205 -1533.51 507.901L-1561.97 518.63C-1571.41 522.356 -1581.03 525.482 -1590.65 528.698C-1600.27 531.853 -1609.83 535.279 -1619.51 538.224C-1697 561.936 -1776.55 579.126 -1857.02 588.322C-1937.5 598.149 -2018.75 600.072 -2099.58 595.805Z" fill="white" fill-opacity="0.2"/>
<path d="M-2099.67 628.051L-2069.02 629.764C-2063.91 630.005 -2058.81 630.426 -2053.7 630.546L-2038.37 630.846C-2028.16 630.997 -2017.91 631.417 -2007.7 631.327L-1977.02 630.876C-1936.15 629.644 -1895.26 627.15 -1854.69 621.921C-1773.41 612.514 -1693.26 594.363 -1615.24 569.78L-1586.2 559.862L-1571.68 554.903L-1557.34 549.434L-1528.7 538.435L-1500.47 526.384L-1486.37 520.343L-1472.48 513.792L-1444.73 500.659L-1417.51 486.474L-1403.89 479.381L-1390.45 471.958C-1318.91 432.048 -1250.05 387.39 -1178.93 346.609C-1107.86 305.647 -1034.11 269.704 -960.112 234.603C-923.131 216.992 -886.089 199.532 -849.526 181.079C-812.992 162.627 -777.295 142.432 -740.583 124.16C-722.211 115.054 -703.691 106.248 -684.722 98.4047C-665.753 90.621 -646.456 83.5286 -626.8 77.6383C-607.084 71.9584 -587.13 67.0598 -566.877 63.754C-556.78 61.9809 -546.563 60.6887 -536.317 59.9674C-526.071 59.156 -515.795 58.9757 -505.519 59.3363C-484.967 59.9974 -464.475 63.3032 -444.79 69.5241C-434.991 72.7397 -425.403 76.6165 -416.202 81.2747C-407.091 86.1131 -398.1 91.2822 -389.915 97.5632C-372.828 109.133 -357.563 123.108 -342.717 137.263C-327.93 151.538 -313.472 166.083 -298.924 180.598C-269.918 209.629 -240.943 238.72 -210.174 265.768C-179.316 292.604 -147.234 318.6 -110.641 336.872C-74.2564 355.414 -34.9151 367.826 5.35246 374.378C25.4862 377.713 45.8291 379.547 66.2317 380.178C86.6343 380.839 107.067 380.328 127.41 378.825C168.155 375.88 208.572 369.118 248.451 360.223C288.36 351.297 327.732 340.178 366.775 327.946C386.281 321.816 405.698 315.354 424.965 308.472C444.203 301.59 463.172 293.867 482.17 286.233C520.078 271.027 558.882 256.361 599.747 251.102C620.119 248.457 640.761 248.217 661.194 250.02C681.626 251.823 701.849 255.58 721.774 260.448C761.623 270.245 800.128 284.43 838.872 297.563C858.23 304.205 877.796 310.155 897.332 316.226C916.898 322.266 936.405 328.457 956.001 334.348C995.163 346.158 1034.56 357.278 1074.41 366.504C1114.23 375.88 1154.65 382.432 1195.1 388.442C1235.57 394.302 1276.23 398.931 1317 402.176C1398.56 408.577 1480.58 409.389 1562.22 403.859C1480.61 409.659 1398.56 409.088 1316.94 402.927C1276.14 399.802 1235.45 395.294 1194.92 389.554C1154.44 383.694 1113.96 377.233 1074.06 367.976C1034.15 358.84 994.685 347.721 955.493 335.94C935.867 330.05 916.361 323.889 896.794 317.879C877.258 311.838 857.632 305.888 838.275 299.246C799.501 286.143 760.996 272.018 721.296 262.311C701.461 257.473 681.327 253.746 661.014 251.973C640.701 250.2 620.209 250.441 600.015 253.115C559.449 258.375 520.855 273.01 482.977 288.247C463.978 295.88 445.009 303.634 425.712 310.576C406.445 317.518 386.998 323.979 367.462 330.14C328.389 342.402 288.958 353.581 248.959 362.597C208.99 371.553 168.484 378.375 127.589 381.38C107.157 382.943 86.6344 383.453 66.1422 382.822C45.65 382.191 25.1578 380.388 4.93439 377.052C-35.5721 370.501 -75.2125 358.029 -111.895 339.396C-130.207 330.05 -147.831 319.261 -164.261 306.849C-180.75 294.588 -196.672 281.545 -212.116 267.991C-243.004 240.884 -272.099 211.823 -301.105 182.792C-315.623 168.277 -330.081 153.701 -344.808 139.456C-359.594 125.302 -374.739 111.447 -391.647 99.9674C-399.772 93.7465 -408.585 88.6376 -417.546 83.8893C-426.627 79.2912 -436.037 75.4745 -445.686 72.289C-465.073 66.1582 -485.296 62.8524 -505.639 62.1913C-515.795 61.8307 -525.982 61.9809 -536.138 62.7923C-546.295 63.4835 -556.421 64.7458 -566.458 66.5189C-586.592 69.7645 -606.457 74.6331 -626.083 80.2529C-645.649 86.0831 -664.857 93.1154 -683.766 100.839C-702.675 108.623 -721.166 117.398 -739.507 126.444C-776.16 144.656 -811.857 164.791 -848.48 183.243C-885.104 201.665 -922.175 219.096 -959.156 236.677C-1033.21 271.688 -1106.9 307.541 -1177.94 348.382C-1249.03 389.073 -1317.95 433.641 -1389.61 473.521L-1403.08 480.944L-1416.74 488.036L-1444.01 502.221L-1471.82 515.354L-1485.71 521.906L-1499.84 527.916L-1528.13 539.937L-1556.84 550.906L-1571.2 556.376L-1585.75 561.335L-1614.85 571.192C-1693.02 595.565 -1773.29 613.476 -1854.66 622.642C-1895.29 627.721 -1936.18 630.125 -1977.08 631.207L-2007.76 631.568C-2017.97 631.628 -2028.22 631.177 -2038.43 630.997L-2053.76 630.636C-2058.87 630.516 -2063.97 630.095 -2069.08 629.825L-2099.67 628.051Z" fill="white" fill-opacity="0.2"/>
<path d="M-2099.76 660.298C-1934.72 675.114 -1767.2 653.867 -1609.89 602.416C-1531.36 576.211 -1455.12 542.912 -1383.07 501.891C-1310.84 461.169 -1241.45 415.64 -1170.38 372.815C-1099.44 329.779 -1026.52 290.2 -954.048 249.93C-917.843 229.734 -881.698 209.389 -846.389 187.721C-811.081 166.053 -776.668 142.822 -741.001 121.575C-723.137 110.997 -704.975 100.929 -686.365 91.6728C-667.695 82.5368 -648.577 74.4226 -629.04 67.3602C-609.444 60.5082 -589.37 54.9785 -569.057 50.651C-548.685 46.5638 -527.894 44.2498 -507.043 44.8508C-501.845 44.8508 -496.647 45.3918 -491.45 45.7224C-486.282 46.3835 -481.084 46.8343 -475.976 47.8561C-465.7 49.539 -455.573 52.2137 -445.716 55.6397C-435.798 58.9455 -426.358 63.5135 -417.218 68.5323L-410.496 72.5593C-408.226 73.8516 -406.165 75.4744 -403.984 76.9169C-399.593 79.7719 -395.62 83.1679 -391.528 86.3835C-387.495 89.6893 -383.283 92.7847 -379.4 96.2408C-375.486 99.6968 -371.693 103.273 -367.959 106.909C-360.491 114.182 -353.321 121.755 -346.331 129.449C-332.381 144.866 -318.759 160.583 -305.167 176.301C-278.014 207.736 -251.039 239.351 -222.064 269.073C-192.998 298.555 -162.678 327.345 -126.951 348.292C-91.4927 369.509 -52.4201 384.445 -12.1227 393.251C28.2046 402.176 69.7268 404.941 110.98 403.679C152.293 402.356 193.397 396.917 233.933 388.743C274.47 380.568 314.468 369.719 353.899 357.127C373.615 350.816 393.181 344.054 412.509 336.692C431.836 329.359 450.775 320.974 469.743 312.589C507.532 295.85 546.126 279.291 587.29 272.559C607.812 269.254 628.723 268.532 649.424 270.065C670.155 271.568 690.647 275.264 710.781 280.163C751.138 289.99 790.002 304.686 829.164 318.059C848.73 324.851 868.535 330.861 888.311 336.962C908.116 343.003 927.861 349.253 947.726 355.144C987.426 366.954 1027.34 377.954 1067.75 386.879C1108.14 395.985 1149.12 402.056 1190.14 407.556C1231.18 412.935 1272.38 417.082 1313.66 419.907C1396.26 425.467 1479.21 425.707 1561.84 420.418C1479.24 425.978 1396.26 425.978 1313.6 420.658C1272.29 417.954 1231.06 413.957 1189.96 408.698C1148.91 403.318 1107.87 397.368 1067.39 388.382C1026.92 379.516 986.948 368.517 947.218 356.767C927.353 350.906 907.608 344.686 887.773 338.645C867.968 332.574 848.133 326.564 828.537 319.802C789.315 306.459 750.481 291.853 710.273 282.086C690.199 277.217 669.797 273.581 649.215 272.109C628.633 270.606 607.902 271.327 587.559 274.663C546.724 281.395 508.308 297.864 470.55 314.663C451.611 323.048 432.642 331.462 413.226 338.855C393.839 346.248 374.242 353.04 354.527 359.381C315.036 372.033 275.008 382.942 234.352 391.177C193.726 399.411 152.472 404.911 111.01 406.293C69.5773 407.616 27.846 404.881 -12.7501 395.925C-53.3163 387.09 -92.6876 372.093 -128.444 350.756C-146.308 340.057 -163.305 327.886 -178.928 314.092C-194.641 300.448 -209.696 286.053 -224.214 271.177C-253.28 241.395 -280.344 209.779 -307.527 178.344C-321.119 162.627 -334.681 146.909 -348.602 131.522C-355.562 123.859 -362.671 116.316 -370.08 109.073C-373.784 105.467 -377.548 101.921 -381.401 98.4947C-385.254 95.0687 -389.407 92.0033 -393.41 88.7276C-397.472 85.542 -401.385 82.1461 -405.717 79.3512C-407.868 77.9387 -409.899 76.3459 -412.11 75.0537L-418.741 71.0867C-427.733 66.1581 -437.023 61.6202 -446.761 58.3745C-456.44 54.9785 -466.417 52.3339 -476.573 50.681C-481.622 49.6592 -486.73 49.2085 -491.838 48.5773C-496.976 48.2468 -502.084 47.7058 -507.222 47.6758C-548.505 46.4436 -589.251 56.6915 -628.234 69.9147C-647.68 76.9169 -666.709 85.0011 -685.319 94.0469C-703.84 103.243 -721.972 113.251 -739.806 123.799C-775.413 144.956 -809.856 168.127 -845.254 189.825C-880.653 211.492 -916.828 231.808 -953.062 251.973C-1025.59 292.154 -1098.51 331.673 -1169.46 374.588C-1240.52 417.293 -1309.97 462.792 -1382.32 503.483C-1454.49 544.475 -1530.88 577.773 -1609.53 603.859C-1767.08 654.888 -1934.75 675.625 -2099.76 660.298Z" fill="white" fill-opacity="0.2"/>
<path d="M-2099.85 692.574L-2068.51 695.339C-2063.29 695.73 -2058.09 696.391 -2052.83 696.601L-2037.12 697.323L-2021.41 698.044C-2016.18 698.284 -2010.92 698.585 -2005.69 698.525L-1974.24 698.675C-1971.61 698.675 -1969.01 698.735 -1966.38 698.675L-1958.53 698.405L-1942.81 697.864C-1932.33 697.473 -1921.84 697.293 -1911.42 696.301L-1880.05 693.957C-1869.63 692.965 -1859.23 691.613 -1848.81 690.471L-1833.18 688.668L-1817.65 686.293L-1786.58 681.455L-1755.69 675.505C-1750.56 674.453 -1745.39 673.641 -1740.28 672.409L-1724.96 668.863C-1683.97 659.907 -1643.73 647.856 -1603.91 634.753L-1574.25 624.295L-1566.84 621.68L-1559.52 618.795L-1544.89 613.025L-1530.25 607.255L-1522.93 604.37L-1515.73 601.215L-1486.91 588.622C-1482.07 586.579 -1477.35 584.325 -1472.63 582.011L-1458.44 575.189C-1449.03 570.561 -1439.44 566.293 -1430.24 561.215L-1402.4 546.519C-1397.74 544.115 -1393.17 541.53 -1388.6 538.976C-1384 536.421 -1379.43 533.867 -1374.89 531.222C-1301.91 489.599 -1231.92 442.988 -1160.94 397.999C-1090.09 352.77 -1018.12 309.344 -947.447 263.904C-912.138 241.154 -877.158 217.864 -843.163 193.16C-809.258 168.367 -776.22 142.312 -741.598 118.33C-724.302 106.339 -706.528 95.0388 -688.277 84.5504C-670.055 74.002 -650.996 64.9261 -631.579 56.8119C-612.133 48.6677 -591.939 42.567 -571.566 37.3679C-561.32 34.9336 -550.925 33.1305 -540.47 31.7781C-529.985 30.6662 -519.44 29.9148 -508.895 30.1553C-487.835 30.576 -466.656 34.0621 -446.88 41.7255C-426.956 48.9982 -409.033 61.1395 -393.23 75.0538C-377.338 89.0583 -363.448 105.106 -350.304 121.605C-337.19 138.134 -324.495 154.934 -311.829 171.793C-286.557 205.512 -261.644 239.472 -234.61 271.658C-221.078 287.766 -207.038 303.393 -192.251 318.299C-184.932 325.813 -177.196 332.845 -169.25 339.697C-161.154 346.339 -152.969 352.86 -144.306 358.78C-127.16 370.771 -108.908 381.17 -89.9094 389.915C-70.9108 398.69 -51.255 405.963 -31.0913 411.523C9.20606 422.822 51.0865 427.841 92.9074 428.382C134.758 428.773 176.609 424.806 217.862 417.473C259.116 410.17 299.771 399.622 339.651 386.759C359.605 380.298 379.321 373.236 398.827 365.482C418.304 357.789 437.243 348.743 456.182 339.637C475.12 330.561 493.97 321.275 513.476 313.311C532.923 305.347 552.967 298.615 573.609 294.408C594.22 290.11 615.459 288.908 636.459 289.99C657.489 291.132 678.31 294.618 698.742 299.547C739.667 309.374 778.979 324.46 818.619 338.164C838.424 345.106 858.438 351.267 878.542 357.338C898.616 363.408 918.661 369.689 938.765 375.61C979.002 387.42 1019.54 398.33 1060.55 407.045C1101.54 415.94 1143.15 421.53 1184.76 426.549C1226.4 431.447 1268.19 435.114 1310.07 437.518C1393.81 442.266 1477.84 441.906 1561.57 436.857C1477.87 442.146 1393.84 442.747 1310.04 438.269C1268.16 435.985 1226.34 432.469 1184.64 427.691C1143 422.792 1101.33 417.323 1060.25 408.547C1019.18 399.922 978.584 388.983 938.316 377.233C918.183 371.342 898.139 365.091 878.065 359.021C857.99 352.95 837.887 346.819 818.051 339.877C778.381 326.203 739.1 311.207 698.324 301.44C677.982 296.571 657.25 293.115 636.37 292.003C615.519 290.952 594.489 292.154 574.027 296.451C553.534 300.629 533.64 307.33 514.283 315.294C494.896 323.228 476.076 332.514 457.138 341.62C438.228 350.726 419.23 359.832 399.693 367.586C380.187 375.369 360.382 382.492 340.427 388.983C300.459 401.936 259.713 412.544 218.34 419.907C176.997 427.33 134.997 431.327 92.9373 430.967C50.9372 430.456 8.81763 425.497 -31.7486 414.137C-52.0317 408.547 -71.8667 401.245 -91.0147 392.439C-110.163 383.664 -128.564 373.206 -145.89 361.124C-154.612 355.174 -162.887 348.623 -171.042 341.921C-179.048 335.039 -186.874 327.916 -194.253 320.373C-209.129 305.437 -223.258 289.75 -236.82 273.611C-263.974 241.335 -288.977 207.375 -314.249 173.686C-326.885 156.827 -339.55 140.028 -352.604 123.529C-365.688 107.09 -379.459 91.162 -395.112 77.3078C-410.795 63.4836 -428.27 51.6429 -447.866 44.4603C-467.283 36.9171 -488.104 33.461 -508.925 33.0103C-519.35 32.7698 -529.775 33.4911 -540.141 34.603C-550.477 35.9254 -560.783 37.6985 -570.939 40.1027C-591.192 45.2717 -611.266 51.2822 -630.594 59.3664C-649.891 67.4205 -668.83 76.4362 -686.992 86.9246C-705.184 97.3528 -722.928 108.562 -740.164 120.523C-774.726 144.385 -807.765 170.411 -841.759 195.204C-875.813 219.907 -910.853 243.198 -946.222 265.918C-1016.99 311.297 -1088.98 354.633 -1159.87 399.802C-1230.87 444.731 -1300.95 491.282 -1374.02 532.845C-1378.56 535.459 -1383.16 538.044 -1387.76 540.568C-1392.36 543.123 -1396.93 545.707 -1401.59 548.112L-1429.37 562.837C-1438.6 567.886 -1448.19 572.184 -1457.63 576.782L-1471.85 583.604C-1476.57 585.918 -1481.32 588.172 -1486.16 590.185L-1515.05 602.777L-1522.27 605.933L-1529.59 608.818L-1544.26 614.558L-1558.93 620.298L-1566.28 623.153L-1573.71 625.767L-1603.44 636.166C-1643.35 649.148 -1683.67 661.109 -1724.72 669.945L-1740.07 673.461C-1745.18 674.663 -1750.38 675.474 -1755.52 676.496L-1786.43 682.357L-1817.56 687.105L-1833.12 689.419L-1848.78 691.162C-1859.2 692.274 -1869.63 693.596 -1880.05 694.558L-1911.45 696.812C-1921.9 697.743 -1932.39 697.894 -1942.87 698.254L-1958.59 698.765L-1966.44 699.006C-1969.07 699.036 -1971.7 698.976 -1974.3 698.976L-2005.75 698.735C-2011.01 698.795 -2016.24 698.465 -2021.47 698.194L-2037.18 697.413L-2052.89 696.632C-2058.12 696.421 -2063.35 695.76 -2068.57 695.339L-2099.85 692.574Z" fill="white" fill-opacity="0.2"/>
<path d="M-2099.91 724.821L-2068.19 728.127C-2062.9 728.607 -2057.61 729.389 -2052.29 729.629L-2036.37 730.561L-2020.45 731.492L-2012.47 731.973C-2009.82 732.124 -2007.16 732.063 -2004.5 732.124L-1972.6 732.574C-1967.28 732.755 -1961.96 732.514 -1956.64 732.364L-1940.69 731.913L-1924.74 731.462C-1919.42 731.342 -1914.14 730.771 -1908.82 730.471L-1877.01 728.217L-1845.31 724.67C-1840.02 724.039 -1834.74 723.559 -1829.48 722.807L-1813.71 720.403C-1803.22 718.72 -1792.65 717.368 -1782.22 715.384C-1761.34 711.297 -1740.4 707.571 -1719.76 702.371L-1704.23 698.735L-1696.46 696.902L-1688.78 694.798L-1658.01 686.323C-1652.88 685.001 -1647.8 683.318 -1642.75 681.725L-1627.54 676.917C-1617.42 673.701 -1607.23 670.636 -1597.25 666.879L-1567.2 656.151C-1557.22 652.424 -1547.43 648.337 -1537.51 644.46L-1522.69 638.54C-1517.76 636.526 -1512.95 634.272 -1508.06 632.169L-1478.84 619.276L-1450.1 605.362L-1435.74 598.389L-1421.64 590.906L-1393.44 575.94C-1384.15 570.741 -1374.86 565.512 -1365.66 560.193C-1291.9 517.518 -1221.19 469.764 -1150.4 422.311C-1079.72 374.648 -1008.86 327.195 -940.218 276.616C-905.954 251.282 -872.199 225.196 -839.788 197.518C-807.347 169.87 -775.802 141.049 -742.256 114.603C-725.557 101.29 -708.201 88.7577 -690.278 77.1574C-672.415 65.4068 -653.625 55.1589 -634.268 46.1431C-615 36.8569 -594.658 30.065 -574.165 24.1446C-553.554 18.4947 -532.195 15.3693 -510.777 15.4594C-500.053 15.6698 -489.359 16.6315 -478.814 18.6149C-468.329 20.8088 -457.933 23.6938 -448.016 27.8711C-428.151 36.1356 -410.317 48.9681 -395.172 64.0845C-379.848 79.1709 -366.764 96.3009 -354.486 113.792C-342.269 131.342 -330.44 149.193 -318.76 167.075C-295.429 202.897 -272.577 239.021 -247.485 273.551C-234.938 290.801 -221.854 307.661 -207.934 323.799C-194.103 339.967 -179.018 355.054 -162.379 368.277C-145.8 381.56 -128.086 393.401 -109.416 403.498C-90.7461 413.596 -71.2397 422.101 -51.1955 429.073C-11.0176 442.807 31.1318 450.32 73.4904 452.695C115.879 455.189 158.476 452.544 200.477 446.293C242.477 439.982 283.909 429.915 324.356 416.842C344.579 410.29 364.564 402.958 384.19 394.843C403.845 386.729 422.904 377.323 441.783 367.435C460.662 357.608 479.481 347.541 498.839 338.555C518.166 329.569 538.21 321.876 558.971 316.767C569.307 314.092 579.881 312.409 590.516 311.207C595.833 310.606 601.18 310.516 606.498 310.125C611.815 309.825 617.162 310.125 622.509 310.095C643.867 310.726 665.047 313.972 685.808 318.78C727.42 328.427 767.239 343.904 807.387 357.969C827.431 365.091 847.714 371.462 868.117 377.503C888.49 383.634 908.833 389.915 929.235 395.895C970.1 407.766 1011.26 418.615 1052.94 427.15C1094.58 435.835 1136.85 441.004 1179.11 445.542C1221.41 449.99 1263.83 453.145 1306.34 455.129C1391.33 459.036 1476.49 458.104 1561.45 453.296C1476.52 458.344 1391.33 459.547 1306.31 455.88C1263.8 454.017 1221.35 450.982 1179 446.654C1136.7 442.236 1094.37 437.217 1052.64 428.622C1010.91 420.148 969.682 409.299 928.787 397.488C908.355 391.538 888.012 385.257 867.609 379.156C847.206 373.115 826.864 366.774 806.79 359.652C766.612 345.617 726.822 330.2 685.39 320.643C664.718 315.895 643.628 312.68 622.449 312.078C617.162 312.109 611.845 311.808 606.557 312.139C601.27 312.529 595.983 312.619 590.725 313.22C580.21 314.423 569.725 316.106 559.479 318.75C538.897 323.829 519.002 331.462 499.735 340.448C480.467 349.404 461.708 359.471 442.799 369.329C423.949 379.246 404.801 388.713 385.086 396.887C365.4 405.061 345.386 412.424 325.103 419.006C284.566 432.169 243.014 442.296 200.865 448.667C158.745 454.948 115.969 457.683 73.371 455.219C30.8033 452.875 -11.5851 445.362 -52.0319 431.568C-72.2254 424.565 -91.8514 416.03 -110.701 405.873C-129.52 395.715 -147.384 383.784 -164.112 370.411C-180.9 357.097 -196.135 341.861 -210.085 325.632C-224.065 309.434 -237.239 292.544 -249.815 275.234C-274.997 240.613 -297.909 204.49 -321.269 168.698C-332.919 150.786 -344.718 132.965 -356.876 115.444C-369.094 97.9838 -382.058 80.9741 -397.174 66.098C-412.199 51.0717 -429.585 38.5699 -449.091 30.4256C-458.8 26.2783 -469.016 23.4534 -479.322 21.2896C-489.687 19.3362 -500.232 18.3745 -510.777 18.1642C-531.897 18.0439 -553.016 21.1093 -573.449 26.6991C-593.791 32.5894 -613.985 39.2911 -633.133 48.4872C-652.371 57.4429 -671.07 67.6007 -688.874 79.2611C-706.738 90.8013 -724.034 103.243 -740.672 116.496C-774.159 142.822 -805.704 171.583 -838.234 199.231C-870.735 226.909 -904.55 253.025 -938.873 278.329C-1007.61 328.878 -1078.56 376.271 -1149.26 423.844C-1220.12 471.207 -1290.92 518.9 -1364.76 561.545C-1373.99 566.894 -1383.28 572.093 -1392.6 577.293L-1420.86 592.259L-1434.99 599.712L-1449.39 606.684L-1478.18 620.568L-1507.43 633.461C-1512.33 635.565 -1517.14 637.818 -1522.1 639.832L-1536.94 645.722C-1546.86 649.599 -1556.69 653.716 -1566.66 657.413L-1596.78 668.111C-1606.75 671.838 -1616.97 674.873 -1627.13 678.059L-1642.36 682.837C-1647.44 684.43 -1652.52 686.083 -1657.65 687.405L-1688.48 695.79L-1696.19 697.894L-1703.96 699.697L-1719.52 703.303C-1740.19 708.442 -1761.16 712.108 -1782.07 716.136C-1792.53 718.059 -1803.1 719.411 -1813.62 721.064L-1829.39 723.438C-1834.65 724.19 -1839.96 724.64 -1845.25 725.272L-1876.98 728.728L-1908.82 730.891C-1914.14 731.192 -1919.42 731.733 -1924.74 731.853L-1940.69 732.274L-1956.64 732.695C-1961.96 732.815 -1967.28 733.025 -1972.6 732.845L-2004.5 732.274C-2007.16 732.214 -2009.82 732.244 -2012.47 732.093L-2020.45 731.613L-2036.37 730.621L-2052.29 729.629C-2057.61 729.389 -2062.87 728.577 -2068.19 728.096L-2099.91 724.821Z" fill="white" fill-opacity="0.2"/>
<path d="M-2100 757.097L-2067.83 760.974L-2059.79 761.936L-2055.76 762.417L-2051.73 762.717L-2035.57 763.859L-2019.41 765.001L-2011.34 765.572L-2003.24 765.782L-1970.86 766.564C-1965.46 766.804 -1960.08 766.474 -1954.67 766.414L-1938.48 766.053L-1922.29 765.692C-1916.91 765.422 -1911.51 765.001 -1906.13 764.671C-1895.38 763.919 -1884.59 763.318 -1873.84 762.417L-1841.64 758.87C-1798.83 753.431 -1756.17 746.188 -1714.26 735.73L-1698.52 732.003C-1693.26 730.801 -1688.09 729.178 -1682.9 727.766L-1651.71 719.051L-1620.85 709.193L-1605.44 704.235L-1590.2 698.705C-1580.08 694.979 -1569.86 691.432 -1559.76 687.616L-1529.71 675.505C-1524.72 673.431 -1519.65 671.598 -1514.75 669.314L-1499.96 662.702C-1490.13 658.224 -1480.15 654.047 -1470.45 649.329C-1451.06 639.772 -1431.49 630.606 -1412.58 620.118C-1403.09 614.979 -1393.44 610.08 -1384.06 604.701C-1374.62 599.411 -1365.27 594.002 -1355.95 588.532C-1281.39 544.686 -1209.96 495.64 -1139.43 445.482C-1069 395.204 -999.454 343.514 -933.138 287.826C-916.559 273.912 -900.189 259.727 -884.148 245.212C-876.082 237.999 -868.196 230.606 -860.25 223.243C-852.424 215.76 -844.567 208.307 -836.89 200.704C-805.943 170.411 -775.891 139.096 -743.361 110.366C-735.355 103.063 -726.901 96.2108 -718.627 89.2085C-710.053 82.5669 -701.659 75.6849 -692.728 69.494C-684.035 62.9726 -674.834 57.2326 -665.753 51.2822C-661.123 48.4873 -656.373 45.8126 -651.713 43.0478C-649.353 41.7255 -647.053 40.2529 -644.634 39.0207L-637.375 35.3243L-630.116 31.6278C-627.696 30.3956 -625.306 29.1334 -622.767 28.1116L-607.831 21.6203C-605.382 20.4783 -602.813 19.5767 -600.244 18.6751L-592.596 15.9103C-587.488 14.0771 -582.41 12.1537 -577.183 10.7112C-572.015 9.02824 -566.727 7.79608 -561.47 6.44371C-558.841 5.81261 -556.153 5.33177 -553.494 4.76077C-550.835 4.18977 -548.177 3.67888 -545.488 3.31825C-534.764 1.45499 -523.891 0.763776 -513.017 0.703671C-502.114 0.643565 -491.27 1.93583 -480.576 3.94935C-469.882 6.08308 -459.516 9.62929 -449.479 13.9869C-439.592 18.6451 -430.152 24.2348 -421.46 30.8765C-419.219 32.4392 -417.247 34.3626 -415.127 36.0756C-413.065 37.8787 -410.915 39.5617 -408.973 41.485C-405 45.2116 -401.176 49.1184 -397.502 53.1454C-382.775 69.2837 -370.498 87.4054 -359.116 105.918C-347.765 124.46 -336.862 143.243 -326.138 162.116C-304.719 199.892 -283.929 237.999 -260.837 274.693C-249.307 293.025 -237.179 310.997 -224.184 328.307C-211.31 345.707 -197.061 361.966 -181.258 376.692C-149.594 406.023 -112.463 429.224 -72.6137 445.602C-32.7942 462.161 9.62407 471.958 52.4307 476.556C95.2971 481.034 138.641 480.253 181.448 475.114C224.255 469.975 266.524 460.508 307.628 447.375C328.18 440.794 348.433 433.281 368.298 424.836C388.193 416.421 407.4 406.594 426.25 396.045C445.129 385.557 463.829 374.588 483.096 364.671C502.364 354.783 522.169 345.737 543.049 339.697C548.307 338.314 553.445 336.631 558.792 335.64L566.738 333.957C569.396 333.416 572.115 333.145 574.773 332.725C577.462 332.364 580.15 331.913 582.839 331.613L590.964 331.012L599.089 330.441L607.215 330.411C628.902 330.351 650.499 333.236 671.649 337.864C714.007 347.15 754.424 363.048 795.11 377.533C815.423 384.866 835.975 391.508 856.706 397.548L918.81 416.091C960.332 428.021 1002.15 438.9 1044.51 447.255C1065.69 451.462 1086.99 454.949 1108.41 457.653L1140.58 461.38C1151.33 462.432 1162.06 463.694 1172.81 464.595C1215.8 468.562 1258.93 471.267 1302.07 472.83C1388.4 475.955 1474.85 474.393 1561.09 469.825C1474.85 474.633 1388.4 476.436 1302.04 473.581C1258.87 472.139 1215.74 469.554 1172.69 465.707C1161.94 464.836 1151.18 463.604 1140.43 462.582L1108.23 458.946C1086.78 456.271 1065.42 452.875 1044.21 448.728C1001.76 440.433 959.884 429.584 918.332 417.683L856.198 399.201C835.467 393.19 814.825 386.549 794.482 379.216C753.767 364.761 713.38 348.953 671.23 339.727C650.2 335.159 628.722 332.304 607.215 332.364L599.149 332.394L591.113 332.965L583.078 333.566C580.419 333.867 577.761 334.317 575.102 334.678C572.444 335.099 569.785 335.369 567.126 335.91L559.24 337.593C553.953 338.555 548.815 340.238 543.617 341.62C522.945 347.631 503.23 356.647 484.052 366.534C464.874 376.451 446.204 387.39 427.295 397.939C408.416 408.517 389.089 418.435 369.164 426.91C349.24 435.414 328.926 442.958 308.345 449.569C267.121 462.792 224.733 472.319 181.747 477.518C138.791 482.717 95.2673 483.559 52.162 479.081C9.14622 474.513 -33.5112 464.716 -73.6294 448.067C-113.748 431.628 -151.177 408.277 -183.14 378.735C-199.062 363.949 -213.52 347.48 -226.455 330.02C-239.509 312.65 -251.697 294.618 -263.287 276.256C-286.468 239.471 -307.348 201.365 -328.767 163.619C-339.461 144.746 -350.334 125.963 -361.626 107.481C-372.947 89.0583 -385.105 71.0568 -399.623 55.1289C-403.267 51.162 -407.031 47.3152 -410.945 43.6188C-412.886 41.7255 -414.977 40.0726 -417.008 38.2995C-419.07 36.6165 -421.011 34.7232 -423.192 33.1905C-431.706 26.6691 -440.936 21.1695 -450.615 16.6015C-460.413 12.334 -470.599 8.84792 -481.084 6.74424C-491.599 4.76077 -502.263 3.46851 -512.987 3.52861C-523.682 3.58872 -534.436 4.24988 -545.01 6.08308C-547.669 6.44371 -550.298 6.92456 -552.926 7.49556C-555.555 8.0365 -558.184 8.51734 -560.813 9.14845C-566.01 10.4708 -571.238 11.7029 -576.376 13.3558C-581.544 14.7983 -586.592 16.6916 -591.67 18.5249L-599.258 21.2596C-601.797 22.1612 -604.336 23.0628 -606.786 24.1747L-621.602 30.606C-624.111 31.6278 -626.501 32.8599 -628.891 34.0921L-636.09 37.7585L-643.289 41.4249C-645.679 42.6571 -647.979 44.0996 -650.309 45.4219C-654.969 48.1567 -659.659 50.8013 -664.26 53.5662C-673.281 59.4865 -682.452 65.1665 -691.085 71.6578C-699.957 77.7886 -708.321 84.6405 -716.864 91.2521C-725.139 98.2243 -733.533 105.016 -741.539 112.289C-774.009 140.899 -804.061 172.154 -835.068 202.447C-842.775 210.08 -850.661 217.533 -858.488 225.016C-866.434 232.379 -874.35 239.802 -882.445 247.015C-898.516 261.56 -914.916 275.715 -931.525 289.629C-997.96 345.317 -1067.59 396.947 -1138.12 447.165C-1208.74 497.263 -1280.22 546.248 -1354.93 590.095C-1364.28 595.565 -1373.66 600.974 -1383.1 606.233C-1392.51 611.613 -1402.16 616.481 -1411.69 621.65C-1430.63 632.139 -1450.25 641.275 -1469.67 650.831C-1479.41 655.55 -1489.39 659.727 -1499.24 664.175L-1514.06 670.756C-1518.96 673.01 -1524.07 674.873 -1529.06 676.947L-1559.17 689.058C-1569.29 692.875 -1579.51 696.421 -1589.67 700.118L-1604.93 705.587L-1620.37 710.516L-1651.29 720.283L-1682.54 728.908C-1687.77 730.29 -1692.93 731.913 -1698.19 733.085L-1713.96 736.782C-1755.93 747.15 -1798.65 754.272 -1841.52 759.592L-1873.75 763.048C-1884.5 763.919 -1895.32 764.46 -1906.07 765.211C-1911.45 765.542 -1916.85 765.963 -1922.23 766.203L-1938.42 766.504L-1954.61 766.804C-1960.02 766.834 -1965.4 767.165 -1970.8 766.894L-2003.18 766.023L-2011.28 765.782L-2019.35 765.181L-2035.51 763.979L-2051.67 762.777L-2055.7 762.477L-2059.73 761.966L-2067.77 760.974L-2100 757.097Z" fill="white" fill-opacity="0.2"/>
<g filter="url(#filter0_d_284_1368)">
<rect width="15" height="15" rx="7.5" transform="matrix(-1 -8.74228e-08 -8.74228e-08 1 84 471)" fill="url(#paint0_linear_284_1368)"/>
</g>
<g filter="url(#filter1_d_284_1368)">
<rect width="15" height="15" rx="7.5" transform="matrix(-1 -8.74228e-08 -8.74228e-08 1 331 437)" fill="url(#paint1_linear_284_1368)"/>
</g>
<g filter="url(#filter2_d_284_1368)">
<rect width="15" height="15" rx="7.5" transform="matrix(-1 -8.74228e-08 -8.74228e-08 1 687 337)" fill="url(#paint2_linear_284_1368)"/>
</g>
<g filter="url(#filter3_d_284_1368)">
<rect width="15" height="15" rx="7.5" transform="matrix(-1 -8.74228e-08 -8.74228e-08 1 1321 174)" fill="url(#paint3_linear_284_1368)"/>
</g>
<g filter="url(#filter4_d_284_1368)">
<rect width="15" height="15" rx="7.5" transform="matrix(-1 -8.74228e-08 -8.74228e-08 1 1257 424)" fill="url(#paint4_linear_284_1368)"/>
</g>
<defs>
<filter id="filter0_d_284_1368" x="19" y="441" width="115" height="115" filterUnits="userSpaceOnUse" color-interpolation-filters="sRGB">
<feFlood flood-opacity="0" result="BackgroundImageFix"/>
<feColorMatrix in="SourceAlpha" type="matrix" values="0 0 0 0 0 0 0 0 0 0 0 0 0 0 0 0 0 0 127 0" result="hardAlpha"/>
<feOffset dy="20"/>
<feGaussianBlur stdDeviation="25"/>
<feComposite in2="hardAlpha" operator="out"/>
<feColorMatrix type="matrix" values="0 0 0 0 0 0 0 0 0 0 0 0 0 0 0 0 0 0 0.5 0"/>
<feBlend mode="normal" in2="BackgroundImageFix" result="effect1_dropShadow_284_1368"/>
<feBlend mode="normal" in="SourceGraphic" in2="effect1_dropShadow_284_1368" result="shape"/>
</filter>
<filter id="filter1_d_284_1368" x="266" y="407" width="115" height="115" filterUnits="userSpaceOnUse" color-interpolation-filters="sRGB">
<feFlood flood-opacity="0" result="BackgroundImageFix"/>
<feColorMatrix in="SourceAlpha" type="matrix" values="0 0 0 0 0 0 0 0 0 0 0 0 0 0 0 0 0 0 127 0" result="hardAlpha"/>
<feOffset dy="20"/>
<feGaussianBlur stdDeviation="25"/>
<feComposite in2="hardAlpha" operator="out"/>
<feColorMatrix type="matrix" values="0 0 0 0 0 0 0 0 0 0 0 0 0 0 0 0 0 0 0.5 0"/>
<feBlend mode="normal" in2="BackgroundImageFix" result="effect1_dropShadow_284_1368"/>
<feBlend mode="normal" in="SourceGraphic" in2="effect1_dropShadow_284_1368" result="shape"/>
</filter>
<filter id="filter2_d_284_1368" x="622" y="307" width="115" height="115" filterUnits="userSpaceOnUse" color-interpolation-filters="sRGB">
<feFlood flood-opacity="0" result="BackgroundImageFix"/>
<feColorMatrix in="SourceAlpha" type="matrix" values="0 0 0 0 0 0 0 0 0 0 0 0 0 0 0 0 0 0 127 0" result="hardAlpha"/>
<feOffset dy="20"/>
<feGaussianBlur stdDeviation="25"/>
<feComposite in2="hardAlpha" operator="out"/>
<feColorMatrix type="matrix" values="0 0 0 0 0 0 0 0 0 0 0 0 0 0 0 0 0 0 0.5 0"/>
<feBlend mode="normal" in2="BackgroundImageFix" result="effect1_dropShadow_284_1368"/>
<feBlend mode="normal" in="SourceGraphic" in2="effect1_dropShadow_284_1368" result="shape"/>
</filter>
<filter id="filter3_d_284_1368" x="1256" y="144" width="115" height="115" filterUnits="userSpaceOnUse" color-interpolation-filters="sRGB">
<feFlood flood-opacity="0" result="BackgroundImageFix"/>
<feColorMatrix in="SourceAlpha" type="matrix" values="0 0 0 0 0 0 0 0 0 0 0 0 0 0 0 0 0 0 127 0" result="hardAlpha"/>
<feOffset dy="20"/>
<feGaussianBlur stdDeviation="25"/>
<feComposite in2="hardAlpha" operator="out"/>
<feColorMatrix type="matrix" values="0 0 0 0 0 0 0 0 0 0 0 0 0 0 0 0 0 0 0.5 0"/>
<feBlend mode="normal" in2="BackgroundImageFix" result="effect1_dropShadow_284_1368"/>
<feBlend mode="normal" in="SourceGraphic" in2="effect1_dropShadow_284_1368" result="shape"/>
</filter>
<filter id="filter4_d_284_1368" x="1192" y="394" width="115" height="115" filterUnits="userSpaceOnUse" color-interpolation-filters="sRGB">
<feFlood flood-opacity="0" result="BackgroundImageFix"/>
<feColorMatrix in="SourceAlpha" type="matrix" values="0 0 0 0 0 0 0 0 0 0 0 0 0 0 0 0 0 0 127 0" result="hardAlpha"/>
<feOffset dy="20"/>
<feGaussianBlur stdDeviation="25"/>
<feComposite in2="hardAlpha" operator="out"/>
<feColorMatrix type="matrix" values="0 0 0 0 0 0 0 0 0 0 0 0 0 0 0 0 0 0 0.5 0"/>
<feBlend mode="normal" in2="BackgroundImageFix" result="effect1_dropShadow_284_1368"/>
<feBlend mode="normal" in="SourceGraphic" in2="effect1_dropShadow_284_1368" result="shape"/>
</filter>
<linearGradient id="paint0_linear_284_1368" x1="7.5" y1="0" x2="7.5" y2="15" gradientUnits="userSpaceOnUse">
<stop stop-color="#40CAF9"/>
<stop offset="1" stop-color="#723FA7"/>
</linearGradient>
<linearGradient id="paint1_linear_284_1368" x1="7.5" y1="0" x2="7.5" y2="15" gradientUnits="userSpaceOnUse">
<stop stop-color="#40CAF9"/>
<stop offset="1" stop-color="#723FA7"/>
</linearGradient>
<linearGradient id="paint2_linear_284_1368" x1="7.5" y1="0" x2="7.5" y2="15" gradientUnits="userSpaceOnUse">
<stop stop-color="#40CAF9"/>
<stop offset="1" stop-color="#723FA7"/>
</linearGradient>
<linearGradient id="paint3_linear_284_1368" x1="7.5" y1="0" x2="7.5" y2="15" gradientUnits="userSpaceOnUse">
<stop stop-color="#40CAF9"/>
<stop offset="1" stop-color="#723FA7"/>
</linearGradient>
<linearGradient id="paint4_linear_284_1368" x1="7.5" y1="0" x2="7.5" y2="15" gradientUnits="userSpaceOnUse">
<stop stop-color="#40CAF9"/>
<stop offset="1" stop-color="#723FA7"/>
</linearGradient>
</defs>
</svg>
