<svg width="186" height="192" viewBox="0 0 186 192" fill="none" xmlns="http://www.w3.org/2000/svg">
<path d="M90.7107 69.6042C90.7107 109.402 90.6776 148.537 90.7769 187.662C90.7879 191.093 89.7067 191.711 86.6394 190.828C63.3809 184.109 40.1004 177.456 16.8199 170.825C14.6242 170.196 13.543 169.236 13.554 166.665C13.6643 147.743 13.7305 128.81 13.5319 109.887C13.4878 105.739 15.6283 106.136 18.3756 106.301C35.2457 107.339 52.1268 108.188 68.9859 109.358C72.7593 109.622 74.4364 108.475 75.7273 104.9C79.4235 94.7384 83.5611 84.7311 87.6103 74.6907C88.2392 73.1018 88.3165 71.1158 90.7107 69.6042Z" fill="white"/>
<path d="M96.7907 69.9463C101.436 81.6859 106.224 93.3813 110.638 105.209C111.884 108.552 113.517 109.6 117.037 109.369C133.896 108.232 150.788 107.449 167.647 106.279C171.377 106.026 172.789 106.621 172.745 110.759C172.535 129.13 172.557 147.511 172.745 165.882C172.778 169.203 171.454 170.262 168.618 171.068C145.845 177.511 123.116 184.065 100.377 190.619C97.3535 191.49 95.4226 191.976 95.4336 187.386C95.6102 148.791 95.5329 110.207 95.544 71.6123C95.544 71.1158 95.6984 70.6193 95.7867 70.1228C96.1287 70.0566 96.4597 70.0015 96.7907 69.9463Z" fill="white"/>
<path d="M144.414 56.3752C135.984 55.9008 127.555 55.327 119.114 54.996C116.058 54.8746 114.315 53.7272 112.638 51.0461C102.939 35.5882 81.7992 36.2944 73.0055 52.3811C71.4167 55.2829 69.5852 56.0994 66.5841 56.2318C56.312 56.7062 46.0619 57.4454 35.7898 57.953C34.1127 58.0302 31.3213 59.597 31.1337 56.2428C30.9792 53.4844 32.899 51.8515 35.6574 51.7191C38.9564 51.5646 42.2664 51.6308 45.5764 51.6308C48.8203 51.6308 52.1634 51.366 53.2667 47.725C54.3921 44.0178 54.9879 40.1671 51.3469 37.0888C49.1182 35.191 47.0218 33.0836 45.113 30.8659C40.3356 25.3051 45.6647 22.5026 48.7872 19.7553C52.1524 16.7873 54.4694 9.71485 61.0563 14.8454C63.6382 16.8645 65.8117 19.4353 68.0957 21.8185C70.1589 23.959 72.6083 25.4706 75.4329 24.0583C78.5222 22.5136 81.6226 20.5166 81.8543 16.4673C82.0198 13.5324 81.8874 10.5975 81.9095 7.6516C81.9205 6.73582 81.733 5.72075 82.0529 4.91531C84.9106 -2.26745 91.2659 0.634342 96.3081 0.325406C100.203 0.0826708 104.34 0.689509 104.396 6.22829C104.429 9.53831 104.407 12.8373 104.44 16.1473C104.462 19.0491 105.013 21.973 108.092 22.8998C111.369 23.8818 114.966 24.8306 117.978 21.973C120.107 19.9539 122.237 17.9127 124.212 15.7391C127.577 12.0539 130.611 12.3739 133.965 15.8825C144.855 27.2911 147.183 25.614 134.407 37.6625C132.266 39.6816 130.578 42.0648 131.935 44.9446C133.491 48.2656 135.587 51.4653 139.923 51.5977C143.41 51.7081 146.907 51.5977 150.394 51.686C152.843 51.7522 155.171 52.8666 154.951 55.4153C154.708 58.2729 152.06 56.5959 150.471 56.651C148.463 56.7172 146.444 56.4414 144.425 56.309C144.414 56.3421 144.414 56.3642 144.414 56.3752Z" fill="white"/>
<path d="M89.498 59.6521C86.8389 66.559 84.4336 72.837 81.9953 79.093C79.0714 86.6178 76.0262 94.0984 73.2347 101.678C72.2086 104.47 70.9398 105.606 67.6739 105.386C46.4014 103.929 25.118 102.671 3.83449 101.568C-0.0713378 101.369 -0.402341 100.365 1.24164 97.0995C6.18461 87.2577 10.8849 77.2945 15.6734 67.3755C16.4567 65.7536 16.9422 64.0986 19.3696 63.9551C42.4515 62.598 65.5334 61.1306 89.498 59.6521Z" fill="white"/>
<path d="M96.7344 59.7295C110.901 60.546 124.263 61.2742 137.613 62.0796C146.97 62.6423 156.315 63.3816 165.671 63.8891C167.911 64.0105 169.345 64.5401 170.371 66.7357C175.215 77.0299 180.125 87.302 185.222 97.4748C186.955 100.928 185.675 101.359 182.53 101.535C161.059 102.716 139.599 104.051 118.139 105.331C116.539 105.43 114.807 105.982 113.969 103.808C108.319 89.3101 102.637 74.8232 96.7344 59.7295Z" fill="white"/>
</svg>
