<svg width="63" height="64" viewBox="0 0 63 64" fill="none" xmlns="http://www.w3.org/2000/svg">
<mask id="mask0_22_21464" style="mask-type:alpha" maskUnits="userSpaceOnUse" x="0" y="0" width="63" height="64">
<rect x="0.263672" y="0.993896" width="62.0614" height="62.0614" rx="31.0307" fill="#C4C4C4"/>
</mask>
<g mask="url(#mask0_22_21464)">
<rect x="0.263672" y="0.993896" width="62.0614" height="62.0614" rx="31.0307" fill="#F5EFFF"/>
<path d="M55.1343 56.5063C56.1336 59.8441 53.5289 63.0563 50.0447 63.0563H12.1952C8.711 63.0563 6.10631 59.8441 7.10556 56.5063C8.08806 53.2244 10.1186 51.8489 12.7489 51.1766C13.4901 50.987 14.8484 50.5906 16.4169 50.1252C17.0202 49.9425 17.658 49.7529 18.3026 49.5564C18.6025 49.4667 18.9059 49.3737 19.2093 49.2806C19.6864 49.1355 20.1619 48.9904 20.6263 48.8484C24.0333 47.8067 27.541 47.1274 31.0924 46.8433C31.113 46.841 31.1338 46.841 31.1544 46.8433C34.3584 47.1 37.5258 47.6957 40.6069 48.6112C41.0712 48.7492 41.5513 48.8917 42.0378 49.0358C42.6445 49.2151 43.265 49.3978 43.8718 49.5771C46.2401 50.27 48.4775 50.9181 49.491 51.1766C52.1213 51.8523 54.1518 53.2244 55.1343 56.5063Z" fill="#19274B"/>
<path d="M42.0359 49.0353C43.0686 49.3329 43.6931 50.395 43.3623 51.4174C43.0572 52.3601 42.6547 53.385 42.1256 54.4029C40.3605 57.8089 37.1924 61.1563 31.5525 61.1563C25.5782 61.1563 22.1618 57.6882 20.2554 54.3615C19.4456 52.945 18.9083 51.5547 18.5647 50.4655C18.4057 49.9618 18.7024 49.435 19.2074 49.2801C19.6846 49.135 20.16 48.9899 20.6244 48.8479C24.0314 47.8062 27.5392 47.1269 31.0905 46.8428C31.1111 46.8405 31.132 46.8405 31.1526 46.8428C34.3566 47.0995 37.5239 47.6953 40.605 48.6107C41.0694 48.7487 41.5495 48.8912 42.0359 49.0353Z" fill="#FF8881"/>
<path d="M24.3893 48.221C24.2479 48.221 24.1135 48.1658 24.0135 48.0658C23.9894 48.0417 23.9653 48.0141 23.948 47.9865C23.9273 47.9589 23.9136 47.9279 23.8998 47.8934C23.886 47.8624 23.8756 47.8279 23.8687 47.7935C23.8618 47.759 23.8584 47.7245 23.8584 47.69C23.8584 47.6556 23.8618 47.6211 23.8687 47.5866C23.8756 47.5522 23.886 47.5177 23.8998 47.4867C23.9136 47.4556 23.9273 47.4246 23.948 47.397C23.9687 47.3694 23.9894 47.3419 24.0135 47.3177C24.1135 47.2178 24.2479 47.1626 24.3893 47.1626C24.5306 47.1626 24.6651 47.2178 24.7651 47.3177C24.7892 47.3419 24.8133 47.3694 24.8306 47.397C24.8478 47.4246 24.865 47.4556 24.8788 47.4867C24.8926 47.5177 24.903 47.5522 24.9098 47.5866C24.9167 47.6211 24.9202 47.6556 24.9202 47.69C24.9202 47.7245 24.9167 47.759 24.9098 47.7935C24.903 47.8279 24.8926 47.859 24.8788 47.8934C24.865 47.9245 24.8478 47.9555 24.8306 47.9865C24.8099 48.0141 24.7892 48.0417 24.7651 48.0658C24.7409 48.0899 24.7133 48.1141 24.6858 48.1313C24.6582 48.1486 24.6272 48.1658 24.5927 48.1796C24.5617 48.1934 24.5272 48.2037 24.4927 48.2106C24.4582 48.2175 24.4238 48.221 24.3893 48.221Z" fill="#F5EFFF"/>
<path d="M31.157 53.6266C30.864 53.6266 30.6261 53.3853 30.6296 53.0957C30.6296 52.8027 30.8675 52.5648 31.1605 52.5683C31.4535 52.5683 31.6914 52.8062 31.6914 53.0992C31.6879 53.3888 31.4501 53.6266 31.157 53.6266ZM31.9879 53.0819C31.9465 52.7924 32.1499 52.5235 32.4395 52.4821C32.729 52.4407 32.9979 52.6441 33.0359 52.9337C33.0772 53.2233 32.8738 53.4922 32.5843 53.5335C32.5601 53.537 32.536 53.537 32.5119 53.537C32.2499 53.537 32.0258 53.3474 31.9879 53.0819ZM29.7264 53.5232C29.4368 53.4818 29.2368 53.2095 29.2782 52.9199C29.3196 52.6303 29.5919 52.4304 29.8815 52.4718C30.1711 52.5131 30.371 52.782 30.3297 53.0716C30.2918 53.337 30.0642 53.5266 29.8057 53.5266C29.7781 53.5266 29.7505 53.5267 29.7264 53.5232ZM33.3323 52.8717C33.2392 52.5924 33.3909 52.2925 33.6702 52.2029C33.9494 52.1098 34.2493 52.2615 34.339 52.5407C34.432 52.8199 34.2804 53.1199 34.0011 53.2095C33.946 53.2267 33.8908 53.2371 33.8356 53.2371C33.615 53.2371 33.4047 53.0957 33.3323 52.8717ZM28.3095 53.1888C28.0303 53.0957 27.882 52.7924 27.9786 52.5166C28.0716 52.2373 28.3716 52.0891 28.6508 52.1856C28.93 52.2787 29.0783 52.5821 28.9817 52.8579C28.9059 53.0785 28.6991 53.2198 28.4784 53.2198C28.4233 53.2164 28.3681 53.206 28.3095 53.1888ZM34.6148 52.4166C34.4631 52.1649 34.5458 51.8409 34.7975 51.6892C35.0491 51.5375 35.3732 51.6203 35.5249 51.8719C35.6765 52.1236 35.5938 52.4476 35.3422 52.5993C35.256 52.651 35.1629 52.6751 35.0698 52.6751C34.894 52.6751 34.7147 52.5821 34.6148 52.4166ZM26.9754 52.5717C26.7237 52.42 26.6444 52.096 26.7961 51.8443C26.9478 51.5927 27.2718 51.5134 27.5235 51.6651C27.7752 51.8168 27.8545 52.1443 27.7028 52.3925C27.6028 52.5579 27.427 52.6476 27.2477 52.6476C27.1546 52.6476 27.0581 52.6234 26.9754 52.5717ZM35.7662 51.6858C35.5593 51.4789 35.5628 51.1411 35.7696 50.9342C35.9765 50.7274 36.3143 50.7274 36.5211 50.9377C36.728 51.1445 36.728 51.4824 36.5177 51.6892C36.4143 51.7926 36.2798 51.8443 36.1454 51.8443C36.0075 51.8443 35.8696 51.7926 35.7662 51.6858ZM25.8033 51.6616C25.593 51.4548 25.593 51.1204 25.7964 50.9101C26.0032 50.6998 26.3376 50.6998 26.5479 50.9066C26.7582 51.1135 26.7582 51.4479 26.5514 51.6547C26.4479 51.7616 26.31 51.8133 26.1721 51.8133C26.0411 51.8133 25.9067 51.7616 25.8033 51.6616ZM36.7073 50.6998C36.4556 50.5447 36.3798 50.2172 36.5349 49.969C36.6901 49.7208 37.0176 49.6415 37.2658 49.7966C37.514 49.9517 37.5933 50.2758 37.4381 50.5274C37.3382 50.6895 37.1624 50.7791 36.9865 50.7791C36.89 50.7791 36.7935 50.755 36.7073 50.6998ZM24.8794 50.5068C24.7242 50.2586 24.7966 49.931 25.0448 49.7759C25.2931 49.6208 25.6206 49.6932 25.7757 49.9414C25.9308 50.1896 25.8584 50.5171 25.6102 50.6722C25.5206 50.7274 25.4241 50.755 25.3275 50.755C25.1517 50.755 24.9794 50.6688 24.8794 50.5068ZM37.3933 49.5208C37.1175 49.4243 36.9728 49.1209 37.0693 48.8451C37.1658 48.5693 37.4692 48.4246 37.745 48.5211C38.0208 48.6176 38.1655 48.921 38.069 49.1968C37.9932 49.4139 37.7863 49.5518 37.5691 49.5518C37.5105 49.5518 37.4519 49.5415 37.3933 49.5208ZM24.2278 49.1899C24.1278 48.9141 24.2657 48.6107 24.5415 48.5073C24.8173 48.4039 25.1207 48.5452 25.2241 48.821C25.3241 49.0933 25.1862 49.4002 24.9104 49.5036C24.8484 49.5277 24.7863 49.538 24.7242 49.538C24.5105 49.5346 24.3071 49.4036 24.2278 49.1899Z" fill="#F5EFFF"/>
<path d="M37.8815 48.2209C37.847 48.2209 37.8125 48.2175 37.7781 48.2106C37.7436 48.2037 37.7126 48.1934 37.6781 48.1796C37.6471 48.1658 37.616 48.1485 37.585 48.1313C37.5574 48.1106 37.5299 48.0899 37.5057 48.0658C37.4816 48.0417 37.4575 48.0141 37.4402 47.9865C37.4195 47.9589 37.4023 47.9279 37.392 47.8934C37.3782 47.8624 37.3678 47.8279 37.3609 47.7935C37.354 47.759 37.3506 47.7245 37.3506 47.69C37.3506 47.6556 37.354 47.6211 37.3609 47.5866C37.3678 47.5522 37.3782 47.5211 37.392 47.4867C37.4057 47.4556 37.423 47.4246 37.4402 47.397C37.4575 47.3694 37.4816 47.3419 37.5057 47.3177C37.5299 47.2936 37.5574 47.2695 37.585 47.2522C37.6126 47.2315 37.6436 47.2178 37.6781 47.204C37.7091 47.1902 37.7436 47.1798 37.7781 47.1729C37.847 47.1592 37.916 47.1592 37.9849 47.1729C38.0194 47.1798 38.0504 47.1902 38.0849 47.204C38.1159 47.2178 38.1469 47.2315 38.1745 47.2522C38.2021 47.2729 38.2297 47.2936 38.2572 47.3177C38.2814 47.3419 38.3021 47.3694 38.3227 47.397C38.3434 47.4246 38.3572 47.4556 38.371 47.4867C38.3848 47.5177 38.3951 47.5522 38.402 47.5866C38.4089 47.6211 38.4124 47.6556 38.4124 47.69C38.4124 47.7245 38.4089 47.759 38.402 47.7935C38.3951 47.8279 38.3848 47.859 38.371 47.8934C38.3572 47.9245 38.3434 47.9555 38.3227 47.9865C38.3021 48.0141 38.2814 48.0417 38.2572 48.0658C38.2331 48.0899 38.2055 48.1141 38.1745 48.1313C38.1469 48.1485 38.1159 48.1658 38.0849 48.1796C38.0539 48.1934 38.0194 48.2037 37.9849 48.2106C37.9504 48.2175 37.916 48.2209 37.8815 48.2209Z" fill="#F5EFFF"/>
<path d="M29.8858 55.7236C34.0592 55.8877 37.9749 60.199 33.8669 60.9528C33.1459 61.0851 32.3757 61.1563 31.5529 61.1563C30.5896 61.1563 29.6928 61.0662 28.8581 60.901C24.7282 60.0836 25.6791 55.5581 29.8858 55.7236Z" fill="#F5EFFF"/>
<path d="M31.1478 46.8358C31.1497 46.8356 31.1513 46.8371 31.1513 46.8389C31.1513 46.8408 31.1497 46.8422 31.1478 46.842C31.1441 46.8416 31.1441 46.8362 31.1478 46.8358Z" fill="#5D46C2"/>
<path d="M31.0933 46.8358C31.097 46.8362 31.097 46.8416 31.0933 46.842C31.0914 46.8422 31.0898 46.8408 31.0898 46.8389C31.0898 46.8371 31.0914 46.8356 31.0933 46.8358Z" fill="#5D46C2"/>
<path d="M37.6936 15.2647C37.6212 15.5474 37.5247 15.837 37.404 16.1266C37.3523 16.2507 37.2972 16.3782 37.2386 16.5058C37.211 16.5644 37.1834 16.623 37.1524 16.6851C36.0768 18.8121 33.867 20.1221 31.4849 20.1221H29.4337C27.7755 20.1221 26.1725 19.4843 24.9866 18.3226C24.4592 17.8054 23.9386 17.1953 23.5318 16.4955C23.4629 16.3782 23.3974 16.2541 23.3353 16.13C23.2974 16.0507 23.2595 15.9714 23.225 15.8887C22.4562 14.0582 22.8527 11.2658 24.897 9.418C29.9784 4.82955 39.338 8.92502 37.6936 15.2647Z" fill="#E9356E"/>
<path d="M36.8615 14.8984C37.3496 15.0994 37.6076 15.6392 37.4046 16.1264C37.3529 16.2505 37.2978 16.378 37.2391 16.5056C37.2116 16.5642 37.184 16.6228 37.153 16.6849C36.0774 18.8119 33.8676 20.1219 31.4855 20.1219H29.4343C27.7761 20.1219 26.1731 19.4841 24.9872 18.3224C24.4597 17.8053 23.9392 17.1951 23.5324 16.4953C23.4635 16.378 23.398 16.2539 23.3359 16.1298C23.2694 15.9909 23.3175 15.8271 23.4476 15.7445C24.9604 14.7848 27.473 13.6167 30.7477 13.6167C33.0806 13.6167 35.1937 14.2112 36.8615 14.8984Z" fill="#FFAC32"/>
<path d="M30.6633 40.6579C37.8544 40.6579 43.684 34.8283 43.684 27.6372C43.684 20.446 37.8544 14.6165 30.6633 14.6165C23.4722 14.6165 17.6426 20.446 17.6426 27.6372C17.6426 34.8283 23.4722 40.6579 30.6633 40.6579Z" fill="#E9356E"/>
<path d="M35.4234 45.1783C35.7237 47.363 35.339 49.8325 33.2753 50.6099C32.6124 50.8597 31.8064 51.0285 30.8384 51.0285C29.0523 51.0285 27.7809 50.3824 26.954 49.7328C26.0341 49.01 25.8138 47.7873 25.957 46.6262L25.9949 46.3263C26.1903 44.7279 27.5698 43.5407 29.1795 43.5857L34.145 43.7243C34.7694 43.7418 35.2896 44.208 35.3752 44.8267L35.4234 45.1783Z" fill="#FF8881"/>
<path d="M35.3141 44.4024C35.3494 44.6641 35.251 44.9284 35.0389 45.0859C33.0605 46.5558 30.0391 47.1185 26.2565 46.6604C26.0903 46.6403 25.973 46.4881 25.994 46.3221C26.1894 44.7238 27.5689 43.5366 29.1785 43.5815L34.5684 43.732C34.9476 43.7426 35.2633 44.0264 35.3141 44.4024Z" fill="#19274B"/>
<path d="M22.0815 33.58C22.6567 35.2024 22.4157 37.389 20.6975 37.4943C18.7994 37.6105 16.8219 35.9296 17.0218 33.3876C17.1014 32.3865 17.4921 31.7331 18.0003 31.3089C19.5035 30.0543 21.4273 31.7346 22.0815 33.58Z" fill="#F55B5D"/>
<path d="M20.3747 36.1349C20.3747 36.5072 20.0748 36.8071 19.7025 36.8071C19.3302 36.8071 19.0303 36.5072 19.0303 36.1349C19.0303 35.7626 19.3302 35.4626 19.7025 35.4626C20.0748 35.4626 20.3747 35.766 20.3747 36.1349Z" fill="#F5EFFF"/>
<path d="M21.1728 36.2384C21.0521 36.2384 20.9452 36.1557 20.9142 36.035C20.5246 34.4527 18.8837 32.9772 18.8699 32.9634C18.7596 32.8669 18.7492 32.698 18.8492 32.5877C18.9457 32.4774 19.1147 32.467 19.225 32.567C19.2974 32.6325 21.0073 34.1666 21.4347 35.9075C21.4692 36.0488 21.383 36.1936 21.2417 36.2281C21.2141 36.235 21.1934 36.2384 21.1728 36.2384Z" fill="#D1373F"/>
<path d="M20.4846 34.7387C20.457 34.7387 20.4295 34.7352 20.4019 34.7249C20.0238 34.5977 19.6551 34.5766 19.3871 34.5862C19.1112 34.5961 18.7167 34.7015 18.6575 34.4319C18.6265 34.2905 18.7161 34.1492 18.8575 34.1147C18.8919 34.1078 19.6986 33.932 20.5708 34.225C20.7087 34.2698 20.7845 34.4215 20.7397 34.5594C20.6984 34.6663 20.5949 34.7387 20.4846 34.7387Z" fill="#D1373F"/>
<path d="M38.6387 33.58C38.0636 35.2024 38.3045 37.389 40.0227 37.4943C41.9209 37.6105 43.8984 35.9296 43.6984 33.3876C43.6189 32.3865 43.2282 31.7331 42.7199 31.3089C41.2168 30.0543 39.2929 31.7346 38.6387 33.58Z" fill="#F55B5D"/>
<path d="M41.6911 36.1349C41.6911 36.5072 41.3912 36.8071 41.0189 36.8071C40.6466 36.8071 40.3467 36.5072 40.3467 36.1349C40.3467 35.7626 40.6466 35.4626 41.0189 35.4626C41.3878 35.4626 41.6911 35.766 41.6911 36.1349Z" fill="#F5EFFF"/>
<path d="M39.548 36.2385C39.5273 36.2385 39.5066 36.2351 39.486 36.2316C39.3446 36.1972 39.255 36.0524 39.2929 35.911C39.7204 34.1701 41.4303 32.6326 41.5027 32.5705C41.613 32.474 41.7785 32.4843 41.8784 32.5912C41.975 32.7015 41.9646 32.867 41.8577 32.967C41.8405 32.9808 40.1996 34.4562 39.8135 36.0386C39.7755 36.1592 39.6687 36.2385 39.548 36.2385Z" fill="#D1373F"/>
<path d="M40.233 34.739C40.1227 34.739 40.0193 34.67 39.9813 34.5563C39.9331 34.4184 40.0089 34.2667 40.1503 34.2219C41.0224 33.9288 41.8291 34.1046 41.8636 34.1115C42.0049 34.1426 42.098 34.2839 42.0635 34.4287C42.0043 34.6986 41.6095 34.5938 41.3333 34.5843C41.0648 34.5752 40.6957 34.5962 40.3192 34.7217C40.2882 34.7321 40.2606 34.739 40.233 34.739Z" fill="#D1373F"/>
<path d="M22.9771 20.4024C19.7399 23.6184 19.6383 28.831 20.3416 33.3396C20.5913 34.9408 21.0301 36.6883 21.7721 38.4244C24.0508 43.761 27.0845 45.4226 30.3147 45.4743C33.9861 45.5329 41.6737 43.4093 40.4568 25.9898C39.8147 16.7789 28.3828 15.0321 22.9771 20.4024Z" fill="#FF8881"/>
<path d="M38.5919 25.7366C38.3616 25.3205 38.4978 24.6222 38.6796 25.0616C38.9732 25.7709 39.3011 26.5264 39.6131 27.1668C39.8899 27.7351 40.617 27.6426 40.8126 27.0416L41.258 25.6732C41.3213 25.4789 41.3463 25.279 41.3153 25.077C41.0762 23.5214 39.4876 16.4812 30.3188 16.4812C20.4739 16.4812 20.0335 24.0712 20.0236 25.231C20.0228 25.333 20.0359 25.429 20.0576 25.5287L20.157 25.9843C20.4504 27.3296 21.6751 28.4431 22.3123 27.2224C22.9478 26.0052 25.4563 24.5059 26.619 25.2363C27.4797 25.7771 28.4671 26.2389 29.4732 26.3861C29.9817 26.4605 30.4862 26.1859 30.1671 25.783C29.813 25.3359 30.0448 24.5303 30.5702 24.7522C32.2938 25.48 35.2851 26.5171 37.7987 26.2302C38.1669 26.1882 38.7714 26.0608 38.5919 25.7366Z" fill="#E9356E"/>
<path d="M20.2686 25.283C20.1119 25.3422 19.9863 25.4605 19.9274 25.6173C19.6491 26.3582 18.8984 28.6748 19.4823 30.7914C20.1891 33.3528 23.1434 36.3382 21.0509 39.3443C20.2333 40.5207 20.0842 41.9004 20.3943 43.0963C20.663 44.1324 21.2085 43.1953 21.2612 42.1263C21.4266 38.6996 24.9292 38.0205 22.2782 33.2011C20.7187 30.3661 20.9021 27.8984 21.3175 26.347C21.472 25.7698 20.8276 25.0718 20.2686 25.283Z" fill="#E9356E"/>
<path d="M41.1076 25.283C41.2643 25.3422 41.3899 25.4605 41.4488 25.6173C41.7272 26.3582 42.4779 28.6748 41.8939 30.7914C41.1872 33.3528 38.2328 36.3382 40.3253 39.3443C41.1429 40.5207 41.292 41.9004 40.9819 43.0963C40.7132 44.1324 40.1677 43.1953 40.115 42.1263C39.9496 38.6996 36.447 38.0205 39.0981 33.2011C40.6575 30.3661 40.4741 27.8984 40.0587 26.347C39.9042 25.7698 40.5486 25.0718 41.1076 25.283Z" fill="#E9356E"/>
<path d="M27.5597 28.7643C26.4912 28.7765 25.9227 27.6623 26.9678 27.4398C27.1353 27.4042 27.3085 27.3763 27.4873 27.3578C27.8803 27.3164 28.2284 27.6198 28.2526 28.0128V28.0197C28.2767 28.4196 27.9595 28.7574 27.5597 28.7643Z" fill="#E9356E"/>
<path d="M33.3514 28.7643C34.4214 28.7765 34.99 27.6626 33.9434 27.4399C33.7758 27.4042 33.6026 27.3763 33.4238 27.3578C33.0308 27.3164 32.6826 27.6198 32.6585 28.0128V28.0197C32.6344 28.4196 32.9515 28.7574 33.3514 28.7643Z" fill="#E9356E"/>
<path d="M30.7722 42.3508C30.0173 42.3508 29.4174 42.0853 29.3795 42.0681C29.2692 42.0164 29.2175 41.8854 29.2692 41.775C29.3209 41.6647 29.4519 41.613 29.5622 41.6647C29.576 41.6716 30.9411 42.268 32.034 41.551C32.1374 41.482 32.2718 41.513 32.3408 41.613C32.4063 41.7164 32.3787 41.8509 32.2787 41.9198C31.7754 42.2473 31.2411 42.3508 30.7722 42.3508Z" fill="#F55B5D"/>
<path d="M31.555 36.7175C31.5481 36.7175 31.5447 36.7175 31.5378 36.7175L29.921 36.5865C29.8003 36.5762 29.7072 36.4693 29.7176 36.3486C29.7279 36.228 29.8348 36.1383 29.9554 36.1452C30.6582 36.2026 31.2406 35.6081 31.1688 34.9067L30.8862 32.1463C30.8724 32.0256 30.9621 31.9153 31.0827 31.905C31.2034 31.8912 31.3137 31.9808 31.3241 32.1015L31.7722 36.4762C31.7791 36.5417 31.755 36.6072 31.7102 36.652C31.6688 36.6934 31.6136 36.7175 31.555 36.7175Z" fill="#F55B5D"/>
<path d="M29.4062 41.0959C27.8072 40.5046 28.8032 38.754 30.508 38.7507C32.1455 38.7475 33.7249 40.2605 32.2414 40.9537C31.8022 41.159 31.2557 41.2899 30.5762 41.2921C30.1301 41.2938 29.7425 41.2202 29.4062 41.0959Z" fill="#F5EFFF"/>
<path d="M27.1422 32.1222C27.1422 32.8875 26.794 33.5115 26.3631 33.5115C25.9322 33.5115 25.584 32.891 25.584 32.1222C25.584 31.3569 25.9322 30.7329 26.3631 30.7329C26.794 30.7364 27.1422 31.3569 27.1422 32.1222Z" fill="#19274B"/>
<path d="M35.4195 32.1222C35.4195 32.8875 35.0714 33.5115 34.6404 33.5115C34.2095 33.5115 33.8613 32.891 33.8613 32.1222C33.8613 31.3569 34.2095 30.7329 34.6404 30.7329C35.0714 30.7364 35.4195 31.3569 35.4195 32.1222Z" fill="#19274B"/>
<path d="M24.299 34.97C24.299 35.101 24.1921 35.2079 24.0611 35.2079C23.9301 35.2079 23.8232 35.101 23.8232 34.97C23.8232 34.839 23.9301 34.7322 24.0611 34.7322C24.1921 34.7322 24.299 34.839 24.299 34.97Z" fill="#F55B5D"/>
<path d="M25.464 35.5455C25.464 35.6765 25.3571 35.7834 25.2261 35.7834C25.0951 35.7834 24.9883 35.6765 24.9883 35.5455C24.9883 35.4145 25.0951 35.3076 25.2261 35.3076C25.3571 35.3076 25.464 35.4145 25.464 35.5455Z" fill="#F55B5D"/>
<path d="M24.299 36.3764C24.299 36.5074 24.1921 36.6142 24.0611 36.6142C23.9301 36.6142 23.8232 36.5074 23.8232 36.3764C23.8232 36.2454 23.9301 36.1385 24.0611 36.1385C24.1921 36.1351 24.299 36.2454 24.299 36.3764Z" fill="#F55B5D"/>
<path d="M26.133 36.6143C26.133 36.7453 26.0261 36.8522 25.8951 36.8522C25.7641 36.8522 25.6572 36.7453 25.6572 36.6143C25.6572 36.4833 25.7641 36.3765 25.8951 36.3765C26.0261 36.3765 26.133 36.4833 26.133 36.6143Z" fill="#F55B5D"/>
<path d="M27.3527 36.3764C27.3527 36.5074 27.2458 36.6142 27.1148 36.6142C26.9838 36.6142 26.877 36.5074 26.877 36.3764C26.877 36.2454 26.9838 36.1385 27.1148 36.1385C27.2458 36.1351 27.3527 36.2454 27.3527 36.3764Z" fill="#F55B5D"/>
<path d="M26.798 35.2078C26.798 35.3388 26.6911 35.4457 26.5601 35.4457C26.4291 35.4457 26.3223 35.3388 26.3223 35.2078C26.3223 35.0768 26.4291 34.97 26.5601 34.97C26.6911 34.97 26.798 35.0768 26.798 35.2078Z" fill="#F55B5D"/>
<path d="M37.1758 34.97C37.1758 35.101 37.2827 35.2079 37.4137 35.2079C37.5447 35.2079 37.6515 35.101 37.6515 34.97C37.6515 34.839 37.5447 34.7322 37.4137 34.7322C37.2827 34.7322 37.1758 34.839 37.1758 34.97Z" fill="#F55B5D"/>
<path d="M36.2466 35.7834C36.378 35.7834 36.4845 35.6769 36.4845 35.5455C36.4845 35.4141 36.378 35.3076 36.2466 35.3076C36.1153 35.3076 36.0088 35.4141 36.0088 35.5455C36.0088 35.6769 36.1153 35.7834 36.2466 35.7834Z" fill="#F55B5D"/>
<path d="M37.1758 36.3764C37.1758 36.5074 37.2827 36.6142 37.4137 36.6142C37.5447 36.6142 37.6515 36.5074 37.6515 36.3764C37.6515 36.2454 37.5447 36.1385 37.4137 36.1385C37.2827 36.1351 37.1758 36.2454 37.1758 36.3764Z" fill="#F55B5D"/>
<path d="M35.3447 36.6143C35.3447 36.7453 35.4516 36.8522 35.5826 36.8522C35.7136 36.8522 35.8205 36.7453 35.8205 36.6143C35.8205 36.4833 35.7136 36.3765 35.5826 36.3765C35.4516 36.3765 35.3447 36.4833 35.3447 36.6143Z" fill="#F55B5D"/>
<path d="M34.1211 36.3764C34.1211 36.5074 34.228 36.6142 34.359 36.6142C34.49 36.6142 34.5968 36.5074 34.5968 36.3764C34.5968 36.2454 34.49 36.1385 34.359 36.1385C34.228 36.1351 34.1211 36.2454 34.1211 36.3764Z" fill="#F55B5D"/>
<path d="M34.6758 35.2078C34.6758 35.3388 34.7827 35.4457 34.9136 35.4457C35.0446 35.4457 35.1515 35.3388 35.1515 35.2078C35.1515 35.0768 35.0446 34.97 34.9136 34.97C34.7827 34.97 34.6758 35.0768 34.6758 35.2078Z" fill="#F55B5D"/>
<path d="M48.3123 54.7658C36.2512 51.183 24.8944 51.183 12.8334 54.7658C0.890997 58.3114 -2.09262 42.3605 6.43086 36.7969C13.9334 31.902 13.0391 31.0829 15.0018 22.69C15.1285 22.1439 15.267 21.5702 15.4252 20.9568C15.5954 20.2841 15.7814 19.5719 15.9911 18.8121C16.1138 18.3689 16.2443 17.9416 16.3789 17.5261C18.4286 11.2264 24.3009 7.2496 30.5768 7.46724C36.8526 7.2496 42.7249 11.2264 44.7747 17.5261C44.9092 17.9376 45.0358 18.3689 45.1624 18.8121C45.3722 19.5719 45.5621 20.2841 45.7283 20.9568C45.8826 21.5702 46.0211 22.1479 46.1517 22.69C48.1144 31.0869 47.2201 31.902 54.7227 36.7969C63.2422 42.3565 60.2546 58.3074 48.3123 54.7658Z" fill="#5A184A"/>
<path d="M59.495 55.5433C60.6426 59.3724 57.6541 63.0578 53.6568 63.0578H10.2076C6.20825 63.0578 3.21847 59.3707 4.36546 55.5394C5.49322 51.7722 7.82392 50.1934 10.8431 49.4218C11.6939 49.2041 13.253 48.7491 15.0534 48.2149C16.0704 47.9102 17.1705 47.5778 18.2587 47.2493C18.8063 47.0828 19.3521 46.9163 19.8851 46.7533C23.7959 45.5576 27.8222 44.7778 31.8986 44.4517C31.9223 44.4491 31.9462 44.4491 31.9698 44.4517C35.6475 44.7463 39.2832 45.4302 42.8198 46.481C43.3528 46.6394 43.9039 46.803 44.4622 46.9684C47.8732 47.9735 51.5572 49.0498 53.0174 49.4257C56.0366 50.2013 58.3673 51.7762 59.495 55.5433Z" fill="#E9356E"/>
<path d="M8.92216 55.0714C8.85489 55.0714 8.79158 55.0516 8.73618 55.0081L7.17315 53.7853C7.04256 53.6824 7.01882 53.4925 7.12171 53.358C7.22459 53.2274 7.41453 53.2036 7.54907 53.3065L9.1121 54.5292C9.24268 54.6321 9.26643 54.8221 9.16354 54.9566C9.10023 55.0318 9.01317 55.0714 8.92216 55.0714Z" fill="#C4205C"/>
<path d="M8.92216 61.6739C8.85489 61.6739 8.79158 61.6541 8.73618 61.6106L7.17315 60.3879C7.04256 60.285 7.01882 60.095 7.12171 59.9605C7.22459 59.8299 7.41453 59.8062 7.54907 59.9091L9.1121 61.1318C9.24268 61.2347 9.26643 61.4246 9.16354 61.5592C9.10023 61.6343 9.01317 61.6739 8.92216 61.6739Z" fill="#C4205C"/>
<path d="M18.051 52.6491C17.9956 52.6491 17.9402 52.6333 17.8927 52.6056C17.7503 52.5185 17.7067 52.3286 17.7938 52.1862L18.8345 50.4965C18.9216 50.354 19.1115 50.3105 19.254 50.3976C19.3964 50.4846 19.4399 50.6746 19.3529 50.817L18.3122 52.5067C18.2528 52.5977 18.1539 52.6491 18.051 52.6491Z" fill="#C4205C"/>
<path d="M13.0432 59.2287C12.9878 59.2287 12.9324 59.2129 12.8849 59.1852C12.7425 59.0981 12.6989 58.9082 12.786 58.7657L13.8267 57.0761C13.9137 56.9336 14.1037 56.8901 14.2461 56.9772C14.3886 57.0642 14.4321 57.2541 14.3451 57.3966L13.3044 59.0863C13.245 59.1773 13.1461 59.2287 13.0432 59.2287Z" fill="#C4205C"/>
<path d="M15.2716 50.9431C15.2914 50.9945 15.2953 51.0499 15.2834 51.1093C15.2518 51.2755 15.0895 51.3784 14.9273 51.3467L12.9804 50.955C12.8142 50.9233 12.7114 50.7611 12.743 50.5988C12.7747 50.4326 12.9369 50.3298 13.0991 50.3614L15.046 50.7532C15.1529 50.773 15.236 50.8481 15.2716 50.9431Z" fill="#C4205C"/>
<path d="M21.9759 58.3599C21.9086 58.3599 21.8453 58.3402 21.7899 58.2966L20.2269 57.0739C20.0963 56.971 20.0725 56.7811 20.1754 56.6465C20.2783 56.516 20.4682 56.4922 20.6028 56.5951L22.1658 57.8178C22.2964 57.9207 22.3201 58.1106 22.2173 58.2452C22.1539 58.3204 22.0669 58.3599 21.9759 58.3599Z" fill="#C4205C"/>
<path d="M16.3848 61.6277C16.3452 61.604 16.3096 61.5684 16.2859 61.5248C16.2028 61.3784 16.2502 61.1925 16.3967 61.1094L18.118 60.1201C18.2644 60.037 18.4504 60.0845 18.5335 60.2309C18.6166 60.3773 18.5691 60.5633 18.4227 60.6464L16.7014 61.6356C16.5985 61.691 16.4798 61.6831 16.3848 61.6277Z" fill="#C4205C"/>
<path d="M43.47 55.0714C43.4027 55.0714 43.3394 55.0516 43.284 55.0081L41.721 53.7853C41.5904 53.6824 41.5667 53.4925 41.6696 53.358C41.7724 53.2274 41.9624 53.2036 42.0969 53.3065L43.66 54.5292C43.7905 54.6321 43.8143 54.8221 43.7114 54.9566C43.6481 55.0318 43.561 55.0714 43.47 55.0714Z" fill="#C4205C"/>
<path d="M43.47 61.6741C43.4027 61.6741 43.3394 61.6544 43.284 61.6108L41.721 60.3881C41.5904 60.2852 41.5667 60.0953 41.6696 59.9607C41.7724 59.8302 41.9624 59.8064 42.0969 59.9093L43.66 61.132C43.7905 61.2349 43.8143 61.4249 43.7114 61.5594C43.6481 61.6346 43.561 61.6741 43.47 61.6741Z" fill="#C4205C"/>
<path d="M52.595 52.6496C52.5396 52.6496 52.4842 52.6338 52.4367 52.6061C52.2942 52.519 52.2507 52.3291 52.3377 52.1866L53.3785 50.497C53.4655 50.3545 53.6554 50.311 53.7979 50.398C53.9403 50.4851 53.9839 50.6751 53.8968 50.8175L52.8561 52.5072C52.7928 52.5982 52.6939 52.6496 52.595 52.6496Z" fill="#C4205C"/>
<path d="M47.594 59.2287C47.5386 59.2287 47.4832 59.2129 47.4357 59.1852C47.2932 59.0981 47.2497 58.9082 47.3368 58.7657L48.3775 57.0761C48.4645 56.9336 48.6545 56.8901 48.7969 56.9772C48.9394 57.0642 48.9829 57.2541 48.8959 57.3966L47.8551 59.0863C47.7958 59.1773 47.6969 59.2287 47.594 59.2287Z" fill="#C4205C"/>
<path d="M58.2444 62.0229C58.189 62.0229 58.1336 62.0071 58.0861 61.9794C57.9436 61.8923 57.9001 61.7024 57.9872 61.5599L59.0279 59.8703C59.1149 59.7278 59.3049 59.6843 59.4473 59.7713C59.5898 59.8584 59.6333 60.0483 59.5462 60.1908L58.5055 61.8805C58.4462 61.9715 58.3473 62.0229 58.2444 62.0229Z" fill="#C4205C"/>
<path d="M49.8126 50.9431C49.8324 50.9945 49.8363 51.0499 49.8245 51.1093C49.7928 51.2755 49.6306 51.3784 49.4683 51.3467L47.5214 50.955C47.3553 50.9233 47.2524 50.7611 47.284 50.5988C47.3157 50.4326 47.4779 50.3298 47.6402 50.3614L49.587 50.7532C49.6939 50.773 49.777 50.8481 49.8126 50.9431Z" fill="#C4205C"/>
<path d="M56.5179 57.1046C56.4506 57.1046 56.3873 57.0848 56.3319 57.0413L54.7688 55.8185C54.6383 55.7156 54.6145 55.5257 54.7174 55.3912C54.8203 55.2606 55.0102 55.2368 55.1448 55.3397L56.7078 56.5625C56.8384 56.6653 56.8621 56.8553 56.7592 56.9898C56.6999 57.065 56.6089 57.1046 56.5179 57.1046Z" fill="#C4205C"/>
<path d="M50.9287 61.6277C50.8892 61.604 50.8535 61.5684 50.8298 61.5248C50.7467 61.3784 50.7942 61.1925 50.9406 61.1094L52.6619 60.1201C52.8083 60.037 52.9943 60.0845 53.0774 60.2309C53.1605 60.3773 53.113 60.5633 52.9666 60.6464L51.2453 61.6356C51.1424 61.691 51.0197 61.6831 50.9287 61.6277Z" fill="#C4205C"/>
<path d="M31.9065 56.218C31.8511 56.218 31.7957 56.2021 31.7482 56.1744C31.6057 56.0874 31.5622 55.8974 31.6493 55.755L32.69 54.0653C32.777 53.9229 32.967 53.8794 33.1094 53.9664C33.2519 54.0535 33.2954 54.2434 33.2084 54.3859L32.1676 56.0755C32.1083 56.1665 32.0094 56.218 31.9065 56.218Z" fill="#C4205C"/>
<path d="M27.0813 61.5244C27.0259 61.5244 26.9705 61.5085 26.923 61.4808C26.7805 61.3938 26.737 61.2038 26.8241 61.0614L27.8648 59.3717C27.9518 59.2293 28.1418 59.1857 28.2842 59.2728C28.4267 59.3599 28.4702 59.5498 28.3831 59.6923L27.3424 61.3819C27.2831 61.4729 27.1842 61.5244 27.0813 61.5244Z" fill="#C4205C"/>
<path d="M27.464 55.1619C27.4837 55.2133 27.4877 55.2687 27.4758 55.3281C27.4442 55.4943 27.2819 55.5971 27.1197 55.5655L25.1728 55.1737C25.0066 55.1421 24.9037 54.9798 24.9354 54.8176C24.9671 54.6514 25.1293 54.5485 25.2915 54.5802L27.2384 54.9719C27.3452 54.9917 27.4283 55.0669 27.464 55.1619Z" fill="#C4205C"/>
<path d="M38.8704 56.9036C38.8031 56.9036 38.7398 56.8838 38.6844 56.8403L37.1214 55.6176C36.9908 55.5147 36.9671 55.3248 37.0699 55.1902C37.1728 55.0597 37.3628 55.0359 37.4973 55.1388L39.0603 56.3615C39.1909 56.4644 39.2147 56.6544 39.1118 56.7889C39.0485 56.8641 38.9614 56.9036 38.8704 56.9036Z" fill="#C4205C"/>
<path d="M32.9395 61.6988C32.8999 61.675 32.8643 61.6394 32.8405 61.5959C32.7575 61.4495 32.8049 61.2635 32.9513 61.1804L34.6727 60.1911C34.8191 60.108 35.0051 60.1555 35.0882 60.3019C35.1713 60.4483 35.1238 60.6343 34.9774 60.7174L33.256 61.7067C33.1532 61.766 33.0344 61.7581 32.9395 61.6988Z" fill="#C4205C"/>
<path d="M31.9618 44.4387C31.9639 44.4385 31.9657 44.4401 31.9657 44.4421C31.9657 44.4442 31.9639 44.4458 31.9618 44.4455C31.9578 44.445 31.9578 44.4392 31.9618 44.4387Z" fill="#5D46C2"/>
<path d="M31.9025 44.4387C31.9068 44.4392 31.9068 44.4454 31.9025 44.4459C31.9003 44.4461 31.8984 44.4444 31.8984 44.4423C31.8984 44.4401 31.9003 44.4384 31.9025 44.4387Z" fill="#5D46C2"/>
<path d="M36.8713 42.5347C37.2159 45.0424 36.7743 47.8769 34.4055 48.7693C33.6446 49.056 32.7194 49.2498 31.6084 49.2498C29.5581 49.2498 28.0988 48.5082 27.1497 47.7624C26.0938 46.9328 25.8409 45.5293 26.0052 44.1966L26.0487 43.8524C26.273 42.0177 27.8565 40.6549 29.7041 40.7065L35.4038 40.8657C36.1205 40.8857 36.7177 41.4209 36.8159 42.131L36.8713 42.5347Z" fill="#FF8881"/>
<path d="M41.4028 50.8129C37.985 55.2171 25.16 55.2125 21.7362 50.8129C21.2659 50.2079 21.1311 49.6178 21.22 49.0593C21.751 45.7258 27.6826 48.2294 30.9565 49.0514C31.5846 49.2091 31.5511 49.2099 32.1792 49.0521C35.411 48.2405 41.3974 45.7764 41.9164 49.0678C42.0041 49.6236 41.8695 50.2107 41.4028 50.8129Z" fill="#F5EFFF"/>
<path d="M36.7435 41.6449C36.7841 41.9453 36.6711 42.2486 36.4277 42.4294C34.1567 44.1167 30.6887 44.7626 26.3468 44.2367C26.1561 44.2136 26.0214 44.039 26.0455 43.8484C26.2698 42.0137 27.8533 40.651 29.7009 40.7026L35.8876 40.8754C36.3229 40.8876 36.6852 41.2133 36.7435 41.6449Z" fill="#19274B"/>
<path d="M21.5572 29.2232C22.2174 31.0855 21.9409 33.5954 19.9686 33.7162C17.7898 33.8497 15.52 31.9202 15.7495 29.0024C15.8408 27.8533 16.2893 27.1033 16.8726 26.6163C18.598 25.1763 20.8063 27.1049 21.5572 29.2232Z" fill="#F55B5D"/>
<path d="M20.2414 33.8495C20.2414 34.633 19.6083 35.2661 18.8248 35.2661C18.0413 35.2661 17.4082 34.633 17.4082 33.8495C17.4082 33.066 18.0413 32.4329 18.8248 32.4329C19.6083 32.4329 20.2414 33.066 20.2414 33.8495Z" fill="#FFAC32"/>
<path d="M20.5108 32.2746C20.3723 32.2746 20.2497 32.1796 20.2141 32.0411C19.7709 30.2288 17.8834 28.5312 17.8675 28.5154C17.7409 28.4046 17.729 28.2107 17.8438 28.0841C17.9546 27.9575 18.1485 27.9456 18.2751 28.0603C18.3582 28.1355 20.3209 29.8964 20.8116 31.8947C20.8511 32.057 20.7522 32.2232 20.59 32.2627C20.5583 32.2706 20.5346 32.2746 20.5108 32.2746Z" fill="#D1373F"/>
<path d="M19.7273 30.5532C19.6957 30.5532 19.664 30.5493 19.6324 30.5374C19.198 30.3912 18.7743 30.3672 18.4666 30.3783C18.1506 30.3897 17.705 30.5083 17.6301 30.201C17.5945 30.0388 17.6974 29.8766 17.8596 29.837C17.8992 29.8291 18.8251 29.6273 19.8263 29.9636C19.9845 30.0151 20.0716 30.1892 20.0201 30.3475C19.9727 30.4701 19.854 30.5532 19.7273 30.5532Z" fill="#D1373F"/>
<path d="M40.5567 29.2232C39.8965 31.0855 40.173 33.5954 42.1453 33.7162C44.3241 33.8497 46.5939 31.9202 46.3645 29.0024C46.2731 27.8533 45.8246 27.1033 45.2413 26.6163C43.5159 25.1763 41.3076 27.1049 40.5567 29.2232Z" fill="#F55B5D"/>
<path d="M44.8332 33.8495C44.8332 34.633 44.2001 35.2661 43.4166 35.2661C42.6331 35.2661 42 34.633 42 33.8495C42 33.066 42.6331 32.4329 43.4166 32.4329C44.2001 32.4329 44.8332 33.066 44.8332 33.8495Z" fill="#FFAC32"/>
<path d="M41.6046 32.2748C41.5808 32.2748 41.5571 32.2708 41.5334 32.2669C41.3711 32.2273 41.2682 32.0611 41.3118 31.8988C41.8024 29.9005 43.7651 28.1357 43.8482 28.0645C43.9749 27.9537 44.1648 27.9655 44.2796 28.0882C44.3904 28.2148 44.3785 28.4048 44.2558 28.5195C44.236 28.5354 42.3525 30.229 41.9093 32.0453C41.8658 32.1838 41.7391 32.2748 41.6046 32.2748Z" fill="#D1373F"/>
<path d="M42.388 30.5535C42.2614 30.5535 42.1427 30.4744 42.0991 30.3438C42.0477 30.1855 42.1308 30.0114 42.293 29.96C43.2942 29.6236 44.2201 29.8254 44.2597 29.8333C44.4219 29.8689 44.5288 30.0312 44.4892 30.1974C44.4211 30.5076 43.9681 30.3887 43.6507 30.3775C43.3432 30.3667 42.9204 30.3899 42.4869 30.5337C42.4553 30.5456 42.4197 30.5535 42.388 30.5535Z" fill="#D1373F"/>
<path d="M21.9018 14.8433C18.9853 18.3527 18.8828 23.4131 19.4228 27.9442C19.6727 30.0414 20.1931 32.4214 21.2025 34.7831C23.8181 40.9086 27.3003 42.8159 31.0081 42.8752C35.2223 42.9425 44.0466 40.505 42.6497 20.51C41.8811 9.53107 27.7628 7.79085 21.9018 14.8433Z" fill="#FF8881"/>
<path d="M19.2697 19.2219C18.6615 22.4793 17.5226 28.591 20.8225 28.2897C21.6735 28.212 21.919 25.9604 21.9438 23.6351C21.9585 22.2586 24.8368 20.6897 26.2081 20.5695C26.2558 20.5653 30.2091 19.8448 30.2535 19.8629C30.6921 20.0429 31.1405 20.1416 31.5817 20.1144C31.802 20.1008 34.9481 19.4743 35.122 19.6102C35.7796 20.124 36.4504 20.459 37.0583 20.4191C37.2508 20.4065 39.8298 20.3041 39.9654 20.4414C40.247 20.7266 40.5366 20.9397 40.8254 21.0388C40.91 21.0679 40.9719 21.1439 40.9674 21.2332C40.9163 22.2594 40.7005 28.0815 42.4003 27.8109C44.2601 27.5141 43.5716 19.6594 42.8079 17.2733C42.0442 14.8872 37.9407 8.90014 30.0464 9.6599C23.689 10.2708 20.3916 13.2126 19.2697 19.2219Z" fill="#5A184A"/>
<path d="M27.8417 23.6955C26.6135 23.7094 25.9609 22.4309 27.1622 22.1752C27.3545 22.1343 27.5534 22.1023 27.7586 22.081C28.2097 22.0335 28.6093 22.3817 28.637 22.8328V22.8408C28.6647 23.2998 28.3007 23.6876 27.8417 23.6955Z" fill="#5A184A"/>
<path d="M34.4912 23.6955C35.7176 23.7094 36.3701 22.4305 35.1706 22.1752C34.9783 22.1343 34.7794 22.1023 34.5743 22.081C34.1232 22.0335 33.7235 22.3817 33.6958 22.8328V22.8408C33.6681 23.2998 34.0322 23.6876 34.4912 23.6955Z" fill="#5A184A"/>
<path d="M31.5306 39.2899C30.664 39.2899 29.9755 38.9852 29.932 38.9654C29.8054 38.906 29.746 38.7557 29.8054 38.629C29.8647 38.5024 30.0151 38.4431 30.1417 38.5024C30.1655 38.5103 31.7245 39.1949 32.9789 38.3718C33.0976 38.2967 33.252 38.3283 33.3311 38.4431C33.4063 38.5618 33.3746 38.7161 33.2599 38.7952C32.6821 39.1712 32.0728 39.2899 31.5306 39.2899Z" fill="#F55B5D"/>
<path d="M32.4284 32.8245C32.4205 32.8245 32.4165 32.8245 32.4086 32.8245L30.5527 32.6741C30.4142 32.6622 30.3074 32.5396 30.3193 32.4011C30.3311 32.2626 30.4538 32.1597 30.5923 32.1676C31.3989 32.2335 32.0674 31.5511 31.985 30.746L31.6607 27.5774C31.6449 27.4389 31.7478 27.3123 31.8863 27.3004C32.0247 27.2846 32.1514 27.3875 32.1632 27.526L32.6777 32.5475C32.6856 32.6227 32.6579 32.6979 32.6064 32.7493C32.5629 32.7968 32.4956 32.8245 32.4284 32.8245Z" fill="#F55B5D"/>
<path d="M29.9654 37.8505C28.1295 37.1724 29.272 35.1619 31.2291 35.1579C33.1075 35.154 34.9198 36.8893 33.2186 37.6856C32.714 37.9218 32.0861 38.0725 31.305 38.0751C30.7945 38.077 30.3507 37.9928 29.9654 37.8505Z" fill="#F5EFFF"/>
<path d="M27.3677 27.5493C27.3677 28.4277 26.968 29.144 26.4734 29.144C25.9788 29.144 25.5791 28.4317 25.5791 27.5493C25.5791 26.6708 25.9788 25.9546 26.4734 25.9546C26.968 25.9585 27.3677 26.6708 27.3677 27.5493Z" fill="#19274B"/>
<path d="M35.9744 29.144C36.4683 29.144 36.8687 28.43 36.8687 27.5493C36.8687 26.6686 36.4683 25.9546 35.9744 25.9546C35.4805 25.9546 35.0801 26.6686 35.0801 27.5493C35.0801 28.43 35.4805 29.144 35.9744 29.144Z" fill="#19274B"/>
<path d="M24.1037 30.8182C24.1037 30.9686 23.981 31.0912 23.8307 31.0912C23.6803 31.0912 23.5576 30.9686 23.5576 30.8182C23.5576 30.6678 23.6803 30.5452 23.8307 30.5452C23.981 30.5452 24.1037 30.6678 24.1037 30.8182Z" fill="#F55B5D"/>
<path d="M25.1646 31.7519C25.3154 31.7519 25.4377 31.6296 25.4377 31.4788C25.4377 31.3281 25.3154 31.2058 25.1646 31.2058C25.0138 31.2058 24.8916 31.3281 24.8916 31.4788C24.8916 31.6296 25.0138 31.7519 25.1646 31.7519Z" fill="#F55B5D"/>
<path d="M24.1037 32.4323C24.1037 32.5827 23.981 32.7053 23.8307 32.7053C23.6803 32.7053 23.5576 32.5827 23.5576 32.4323C23.5576 32.2819 23.6803 32.1593 23.8307 32.1593C23.981 32.1553 24.1037 32.2819 24.1037 32.4323Z" fill="#F55B5D"/>
<path d="M26.2052 32.7054C26.2052 32.8558 26.0826 32.9784 25.9322 32.9784C25.7818 32.9784 25.6592 32.8558 25.6592 32.7054C25.6592 32.555 25.7818 32.4324 25.9322 32.4324C26.0826 32.4324 26.2052 32.555 26.2052 32.7054Z" fill="#F55B5D"/>
<path d="M27.6047 32.4323C27.6047 32.5827 27.482 32.7053 27.3316 32.7053C27.1813 32.7053 27.0586 32.5827 27.0586 32.4323C27.0586 32.2819 27.1813 32.1593 27.3316 32.1593C27.482 32.1553 27.6047 32.2819 27.6047 32.4323Z" fill="#F55B5D"/>
<path d="M26.968 31.0912C26.968 31.2415 26.8453 31.3642 26.6949 31.3642C26.5445 31.3642 26.4219 31.2415 26.4219 31.0912C26.4219 30.9408 26.5445 30.8181 26.6949 30.8181C26.8453 30.8181 26.968 30.9408 26.968 31.0912Z" fill="#F55B5D"/>
<path d="M38.8789 30.818C38.8789 30.9683 39.0016 31.091 39.1519 31.091C39.3023 31.091 39.425 30.9683 39.425 30.818C39.425 30.6676 39.3023 30.5449 39.1519 30.5449C39.0016 30.5449 38.8789 30.6676 38.8789 30.818Z" fill="#F55B5D"/>
<path d="M37.8199 31.7519C37.9707 31.7519 38.0929 31.6296 38.0929 31.4788C38.0929 31.3281 37.9707 31.2058 37.8199 31.2058C37.6691 31.2058 37.5469 31.3281 37.5469 31.4788C37.5469 31.6296 37.6691 31.7519 37.8199 31.7519Z" fill="#F55B5D"/>
<path d="M38.8789 32.4321C38.8789 32.5824 39.0016 32.7051 39.1519 32.7051C39.3023 32.7051 39.425 32.5824 39.425 32.4321C39.425 32.2817 39.3023 32.159 39.1519 32.159C39.0016 32.1551 38.8789 32.2817 38.8789 32.4321Z" fill="#F55B5D"/>
<path d="M36.7773 32.7052C36.7773 32.8555 36.9 32.9782 37.0504 32.9782C37.2008 32.9782 37.3234 32.8555 37.3234 32.7052C37.3234 32.5548 37.2008 32.4321 37.0504 32.4321C36.9 32.4321 36.7773 32.5548 36.7773 32.7052Z" fill="#F55B5D"/>
<path d="M35.377 32.4321C35.377 32.5824 35.4996 32.7051 35.65 32.7051C35.8004 32.7051 35.923 32.5824 35.923 32.4321C35.923 32.2817 35.8004 32.159 35.65 32.159C35.4996 32.1551 35.377 32.2817 35.377 32.4321Z" fill="#F55B5D"/>
<path d="M36.0156 31.0909C36.0156 31.2413 36.1383 31.3639 36.2887 31.3639C36.439 31.3639 36.5617 31.2413 36.5617 31.0909C36.5617 30.9405 36.439 30.8179 36.2887 30.8179C36.1383 30.8179 36.0156 30.9405 36.0156 31.0909Z" fill="#F55B5D"/>
<path d="M26.117 32.7687C23.6518 32.7687 21.6416 30.7625 21.6416 28.2933C21.6416 25.828 23.6478 23.8179 26.117 23.8179C28.5823 23.8179 30.5924 25.8241 30.5924 28.2933C30.5885 30.7625 28.5823 32.7687 26.117 32.7687ZM26.117 24.2254C23.8734 24.2254 22.0492 26.0496 22.0492 28.2933C22.0492 30.5369 23.8734 32.3611 26.117 32.3611C28.3607 32.3611 30.1849 30.5369 30.1849 28.2933C30.1849 26.0496 28.3567 24.2254 26.117 24.2254Z" fill="#F5EFFF"/>
<path d="M36.8875 32.7687C34.4223 32.7687 32.4121 30.7625 32.4121 28.2933C32.4121 25.828 34.4183 23.8179 36.8875 23.8179C39.3528 23.8179 41.363 25.8241 41.363 28.2933C41.359 30.7625 39.3528 32.7687 36.8875 32.7687ZM36.8875 24.2254C34.6439 24.2254 32.8197 26.0496 32.8197 28.2933C32.8197 30.5369 34.6439 32.3611 36.8875 32.3611C39.1312 32.3611 40.9554 30.5369 40.9554 28.2933C40.9554 26.0496 39.1312 24.2254 36.8875 24.2254Z" fill="#F5EFFF"/>
<path d="M40.9032 27.0467C40.8557 27.0467 40.8042 27.0309 40.7647 26.9953C40.6816 26.9201 40.6776 26.7895 40.7528 26.7103C40.8082 26.651 42.1298 25.2225 44.1123 25.5509C44.2231 25.5707 44.2983 25.6736 44.2785 25.7844C44.2587 25.8952 44.1558 25.9704 44.0451 25.9506C42.2802 25.6617 41.0654 26.9715 41.0535 26.9834C41.014 27.023 40.9586 27.0467 40.9032 27.0467Z" fill="#F5EFFF"/>
<path d="M22.1275 26.9637C22.0761 26.9637 22.0207 26.944 21.9811 26.9004C21.9574 26.8767 20.3587 25.278 18.3881 25.9389C18.2813 25.9745 18.1665 25.9191 18.1309 25.8122C18.0953 25.7054 18.1507 25.5906 18.2575 25.555C20.4814 24.8111 22.1987 26.5443 22.2739 26.6195C22.3531 26.6986 22.3491 26.8292 22.27 26.9083C22.2304 26.9439 22.1789 26.9637 22.1275 26.9637Z" fill="#F5EFFF"/>
<path d="M30.3859 27.8859C30.3819 27.8859 30.378 27.8859 30.374 27.8859C30.2632 27.878 30.1762 27.783 30.1841 27.6682C30.2078 27.3121 30.5125 26.6394 31.5018 26.6394C32.4911 26.6394 32.7957 27.3121 32.8195 27.6682C32.8274 27.779 32.7403 27.878 32.6295 27.8859C32.5188 27.8938 32.4198 27.8067 32.4119 27.6959C32.408 27.6326 32.3328 27.047 31.4978 27.047C30.6392 27.047 30.5877 27.6682 30.5877 27.6959C30.5798 27.8028 30.4927 27.8859 30.3859 27.8859Z" fill="#F5EFFF"/>
</g>
</svg>
