<svg width="172" height="110" viewBox="0 0 172 110" fill="none" xmlns="http://www.w3.org/2000/svg">
<path fill-rule="evenodd" clip-rule="evenodd" d="M82.2476 0.98433C79.4126 3.81933 81.9076 9.82933 85.9186 9.82933C86.8946 9.82933 88.5196 8.91533 89.5296 7.79933C92.2486 4.79533 90.5346 0.435333 86.4796 0.0343328C84.8366 -0.127667 82.9326 0.29933 82.2476 0.98433ZM31.6576 12.6583C29.5066 15.0353 29.5626 17.1203 31.8316 19.1743C35.4846 22.4813 40.0026 20.6313 40.0026 15.8293C40.0026 10.9493 34.9436 9.02733 31.6576 12.6583ZM132.411 13.3293C130.894 15.6453 130.894 16.0133 132.411 18.3293C133.422 19.8713 134.989 20.8293 136.503 20.8293C138.017 20.8293 139.584 19.8713 140.595 18.3293C142.112 16.0133 142.112 15.6453 140.595 13.3293C139.584 11.7873 138.017 10.8293 136.503 10.8293C134.989 10.8293 133.422 11.7873 132.411 13.3293ZM77.9676 32.4573C72.9595 46.2763 69.8446 53.4803 68.5026 54.3473C67.4026 55.0573 64.0276 55.9193 61.0026 56.2633L55.5026 56.8863L58.7436 55.0873L61.9846 53.2873L50.3966 38.5583C44.0226 30.4573 38.4706 23.8293 38.0576 23.8293C37.6446 23.8293 37.0476 31.3663 36.7306 40.5793C36.4136 49.7923 35.8626 58.0753 35.5066 58.9873C35.1506 59.8983 32.6706 61.5863 29.9956 62.7373C24.9006 64.9283 22.2596 65.4923 25.2526 63.7493C26.2146 63.1883 27.0026 62.3543 27.0026 61.8963C27.0026 60.7763 10.0166 48.4823 9.36656 49.1313C9.08656 49.4123 12.6746 58.7973 17.3416 69.9863C24.1506 86.3103 26.1906 90.3063 27.6646 90.2143C28.6756 90.1503 35.5776 89.3563 43.0026 88.4493C71.3926 84.9813 109.456 85.3393 135.962 89.3223C141.165 90.1043 145.547 90.6183 145.7 90.4653C146.606 89.5593 162.929 49.4223 162.547 49.0403C162.291 48.7843 157.942 51.5573 152.881 55.2023C147.82 58.8473 142.637 61.8293 141.362 61.8293C139.086 61.8293 131.227 59.1553 129.754 57.8803C129.342 57.5233 130.467 57.4023 132.254 57.6113L135.503 57.9923L135.207 40.9113C135.045 31.5163 134.503 23.8293 134.002 23.8293C133.502 23.8293 127.639 30.6913 120.974 39.0793C114.309 47.4673 108.237 54.5543 107.482 54.8293C105.191 55.6633 93.9546 54.7163 94.5576 53.7403C94.8676 53.2393 96.1926 52.8293 97.5026 52.8293C98.8126 52.8293 100.085 52.4913 100.33 52.0793C100.812 51.2683 87.3716 13.8073 86.1636 12.5943C85.7616 12.1893 82.0726 21.1283 77.9676 32.4573ZM1.65756 38.6583C-0.49344 41.0353 -0.437441 43.1203 1.83156 45.1743C5.48456 48.4813 10.0026 46.6313 10.0026 41.8293C10.0026 36.9493 4.94356 35.0273 1.65756 38.6583ZM162.411 39.3293C160.894 41.6453 160.894 42.0133 162.411 44.3293C163.422 45.8713 164.989 46.8293 166.503 46.8293C168.017 46.8293 169.584 45.8713 170.595 44.3293C172.112 42.0133 172.112 41.6453 170.595 39.3293C169.584 37.7873 168.017 36.8293 166.503 36.8293C164.989 36.8293 163.422 37.7873 162.411 39.3293ZM61.0026 93.4063C58.5276 93.6103 50.4276 94.2803 43.0026 94.8943C35.5776 95.5093 28.9176 96.4943 28.2026 97.0843C27.4186 97.7313 27.0226 99.7713 27.2026 102.231C27.4906 106.136 27.6686 106.333 31.5026 106.983C44.0496 109.108 68.0716 110.051 96.1956 109.522C126.135 108.959 141.211 107.732 143.716 105.652C145.657 104.041 145.339 98.0793 143.253 96.9633C139.886 95.1623 119.277 93.7033 92.5026 93.3703C77.6526 93.1853 63.4776 93.2013 61.0026 93.4063ZM124.003 103.192C130.884 104.463 127.749 104.579 86.0026 104.596C41.4876 104.614 36.5886 104.159 57.0026 101.899C68.8726 100.584 114.672 101.468 124.003 103.192Z" fill="white"/>
</svg>
