<svg width="23" height="22" viewBox="0 0 23 22" fill="none" xmlns="http://www.w3.org/2000/svg">
<rect x="0.554688" width="22" height="22" rx="11" fill="white"/>
<path d="M15.5209 14.8174L15.5209 14.8174L15.5191 14.8156L13.9635 13.2725C14.5708 12.472 14.8624 11.4742 14.7798 10.4702C14.6942 9.42951 14.2131 8.46118 13.4355 7.7643C12.6579 7.06743 11.6428 6.69498 10.599 6.72355C9.55517 6.75211 8.56198 7.17951 7.82363 7.91786C7.08527 8.65622 6.65787 9.64941 6.62931 10.6932C6.60074 11.737 6.97319 12.7521 7.67007 13.5297C8.36694 14.3074 9.33527 14.7884 10.3759 14.874C11.3801 14.9566 12.378 14.6649 13.1786 14.0574L14.7213 15.6001C14.7214 15.6002 14.7215 15.6003 14.7215 15.6003C14.7738 15.6529 14.8359 15.6947 14.9043 15.7232C14.9729 15.7518 15.0463 15.7665 15.1206 15.7665C15.1948 15.7665 15.2683 15.7518 15.3368 15.7232C15.4053 15.6947 15.4675 15.6528 15.5198 15.6001L15.5209 15.599C15.6223 15.4942 15.6789 15.354 15.6789 15.2082C15.6789 15.0624 15.6223 14.9223 15.5209 14.8174ZM10.7199 13.7724C10.1348 13.7724 9.5628 13.5989 9.07632 13.2738C8.58983 12.9488 8.21066 12.4867 7.98675 11.9462C7.76285 11.4056 7.70426 10.8108 7.81841 10.237C7.93255 9.66311 8.2143 9.13599 8.62803 8.72227C9.04175 8.30854 9.56887 8.02679 10.1427 7.91265C10.7166 7.7985 11.3114 7.85708 11.8519 8.08099C12.3925 8.3049 12.8545 8.68407 13.1796 9.17055C13.5046 9.65704 13.6781 10.229 13.6781 10.8141C13.6781 11.5987 13.3665 12.3511 12.8117 12.9059C12.2569 13.4607 11.5044 13.7724 10.7199 13.7724Z" fill="#232323" stroke="#232323" stroke-width="0.244444"/>
</svg>
