<svg width="27" height="27" viewBox="0 0 27 27" fill="none" xmlns="http://www.w3.org/2000/svg">
<path d="M25.5456 23.6911L25.5457 23.6911L25.5414 23.6868L21.0856 19.267C22.8233 16.9974 23.6588 14.1603 23.424 11.3053C23.182 8.36368 21.8222 5.62657 19.6241 3.65678C17.4261 1.68698 14.5568 0.634211 11.6064 0.714945C8.65598 0.79568 5.8486 2.00378 3.76155 4.09083C1.67449 6.17789 0.466395 8.98526 0.385661 11.9357C0.304926 14.8861 1.35769 17.7554 3.32749 19.9534C5.29729 22.1515 8.03439 23.5113 10.976 23.7533C13.8314 23.9881 16.6688 23.1524 18.9386 21.4142L23.3575 25.8331C23.3576 25.8332 23.3577 25.8333 23.3578 25.8334C23.5008 25.9775 23.6709 26.0919 23.8584 26.17C24.0459 26.2482 24.2471 26.2884 24.4503 26.2884C24.6535 26.2884 24.8546 26.2482 25.0422 26.17C25.2297 26.0919 25.4 25.9774 25.543 25.8331L25.5456 25.8305C25.823 25.5435 25.9781 25.16 25.9781 24.7608C25.9781 24.3617 25.823 23.9781 25.5456 23.6911ZM11.9482 20.7401C10.2745 20.7401 8.63833 20.2437 7.24667 19.3139C5.85501 18.384 4.77034 17.0623 4.12983 15.516C3.48932 13.9697 3.32173 12.2681 3.64826 10.6265C3.97479 8.98496 4.78077 7.47708 5.96428 6.29357C7.14779 5.11006 8.65568 4.30408 10.2973 3.97755C11.9388 3.65102 13.6404 3.81861 15.1867 4.45912C16.733 5.09963 18.0547 6.18429 18.9846 7.57595C19.9144 8.96761 20.4108 10.6038 20.4108 12.2775C20.4108 14.5219 19.5192 16.6744 17.9321 18.2614C16.3451 19.8485 14.1926 20.7401 11.9482 20.7401Z" fill="white" stroke="white" stroke-width="0.577778"/>
</svg>
