<svg width="20" height="19" viewBox="0 0 20 19" fill="none" xmlns="http://www.w3.org/2000/svg">
<path fill-rule="evenodd" clip-rule="evenodd" d="M4.81679 0.168823C2.56429 0.168823 0.738281 1.99484 0.738281 4.24733V14.8359C0.738281 17.0884 2.56429 18.9144 4.81679 18.9144H15.4054C17.6579 18.9144 19.4839 17.0884 19.4839 14.8359V4.24733C19.4839 1.99483 17.6579 0.168823 15.4054 0.168823H4.81679ZM10.1117 15.0476C13.1526 15.0476 15.6177 12.5825 15.6177 9.54164C15.6177 6.50077 13.1526 4.03565 10.1117 4.03565C7.07082 4.03565 4.60571 6.50077 4.60571 9.54164C4.60571 12.5825 7.07082 15.0476 10.1117 15.0476Z" fill="white"/>
<circle cx="10.1692" cy="9.59957" r="3.67066" stroke="white" stroke-opacity="0.5" stroke-width="1.22355"/>
<circle cx="10.1693" cy="9.59961" r="1.83533" fill="white" fill-opacity="0.8"/>
</svg>
